<svg xmlns="http://www.w3.org/2000/svg" viewBox="2353 4900 5790 5018">
  <defs>
    <style>
      .white {
        fill: #fefefe
      }

      .red {
        fill: #e31e24
      }

      .blue {
        fill: #264796
      }
    </style>
  </defs>
  <g id="volgasprint">
    <!-- Do not change the order: It affects the overlapping! -->
    <path id="northeast" class="white" d="m6671.55 6762.87-357.77-619.7 546.73-946.96-167.66-290.41h-335.34l-379.06 656.57-379.07-656.57h-670.66l1407.5 2437.88z" />
    <path id="northwest" class="white" d="M5395.29 5852.77h-707.14l-546.72-946.97h-335.34l-167.66 290.4 379.07 656.57h-758.14l-335.33 580.81h2797.01z" />
    <path id="southeast" class="red" d="m6860.51 9615.39-379.07-656.57 758.14.01 335.33-580.81H4746.48l335.33 580.81h728.98l546.73 946.97h335.33z" />
    <path id="west" class="blue" d="M4659 6484.08h-670.66l-364.49 631.32H2530.38l-167.65 290.4 167.65 290.4h758.15l-379.07 656.57 335.32 580.81z" />
    <path id="east" class="blue" d="M6875.09 7696.2h1093.47l167.65-290.4-167.65-290.4h-758.15l379.07-656.57-335.32-580.81-1414.22 2449.5h670.66z" />
    <path id="tower" d="m5240.93 5261.4-81.71 591.38h-38.58v217.01h-.01l-75.42 479.8h-93.65l-16.13 39.17h16.13v286.59H4856.9v.02l-26.14 64.39h26.14v359.29h-185.08v525.28h-155.33v671.56h-258.68V9905.8h1983.32V8495.89h-258.68v-671.56h-155.33v-525.28h-185.08v-359.29h26.14l-26.14-64.39v-.02H5547.38v-286.59h16.13l-16.13-39.17h-93.65l-75.42-479.8h-.01v-217.01h-38.58l-81.71-591.38c13.65-3.74 23.67-16.24 23.67-31.06 0-17.8-14.42-32.22-32.21-32.22-12.56 0-22.75-10.18-22.75-22.75 0-9.94 6.37-18.38 15.24-21.49v-27.38c-59.45-7.67-102.21-61.44-95.9-121.39 6.08-57.95 55.85-100.74 113.14-99.11-25.87 14.46-44.53 40.85-47.87 72.55-5.45 51.85 32.16 98.3 84 103.75 21.09 2.21 41.28-2.69 58.18-12.78-18.86 34.71-55.53 57.66-96.53 57.9v26.46c8.87 3.11 15.24 11.55 15.24 21.49 0 12.57-10.19 22.75-22.75 22.75-17.79 0-32.21 14.42-32.21 32.22 0 14.82 10.02 27.32 23.67 31.06z" style="fill:#5b5b5b" />
    <path id="windows" class="white" d="M5060.89 6652.77h-.02c-31.64 0-57.51 25.87-57.51 57.51v101.05h115.04v-101.05c0-31.64-25.87-57.51-57.51-57.51zm538.58 3253.03h-700v-641.91c0-192.01 157.09-349.1 349.11-349.1h1.78c192.02 0 349.11 157.09 349.11 349.1v641.91zm-329.78-3970.44h-40.44v93.49h40.44v-93.49zm81.67 0h-40.45v93.49h40.45v-93.49zm-162.19 0h-40.45v93.49h40.45v-93.49zm-58.78 2293.71h-136.88v202.23h136.88v-202.23zm176.6-1176.25h-115.04v158.56h115.04v-158.56zm-252.71 563.22h-107.34v158.57h107.34v-158.57zm498.13 0h-107.33v158.57h107.33v-158.57zm-46.9 613.03h-136.89v202.23h136.89v-202.23zm-256.03-1576.3h-.02c-31.64 0-57.51 25.87-57.51 57.51v101.05h115.04v-101.05c0-31.64-25.87-57.51-57.51-57.51zm188.59 0h-.02c-31.64 0-57.51 25.87-57.51 57.51v101.05h115.04v-101.05c0-31.64-25.87-57.51-57.51-57.51z" />
    <path id="southwest" class="red" d="m4520.49 9249.23 379.07 656.57h670.66L4156 7456.31l-335.32 580.8 364.48 631.32-546.73 946.97 167.66 290.4h335.34z" />
  </g>
</svg>
