<?xml version="1.0" encoding="UTF-8"?><svg id="Layer_2" xmlns="http://www.w3.org/2000/svg" viewBox="0 0 1771.11 1435.15"><defs><style>.cls-1{stroke-width:0px;}</style></defs><g id="Vector_layer"><path class="cls-1" d="M1771.11,875.48c-.33-35.4-10.09-70.1-27.29-101.01-11.08-19.24-20.82-39.78-36.96-55.42-10.4-9.11-17.83-20.72-26.21-31.56-9.33-10.95-21.45-19-30.38-30.36-27.35-22.24-12.76-34.32-1.94-60.9,8.79-20.05,13.71-41.66,19.19-62.79,3.57-18.58.18-37.72-1.37-56.39-1.58-22.27-1.44-45.19-10.32-66.32-14.2-47.8-36.49-95.61-75.58-128.05-27.22-18.93-57.09-39.56-91.51-39.59-9.48.98-18.42,4.67-27.92,5.76-42.77,16.76-26.99-42.54-37.06-64.98-7.1-26.54-27.89-32.48-52.51-35.43-35.43-4.89-71.98,9.13-106.54-3.49-27.14-13.8-43.12-42.06-67.02-60.24-55.12-45.05-129.47-62.61-199.5-64.59-34.05-.15-68.54-.65-102.33,3.82-19.99,5.97-41.12,6.98-60.85,13.73-11.73,4.12-21.82,11.56-32.67,17.44-14.45,6.32-26.44,17.64-31.74,32.68-41.27-86.06-119.21-114.31-200.79-60.09-37.38,32.01-56.19,79.49-66.8,126.38-7.07,39.24-12.98,79.64-1.49,118.7,4.49,14.6,11.02,28.51,17.25,42.44,5.46,12.25,22.04,36.07,11.56,47.99-12.29-15.01-16.12-37.44-24.48-55.11-12.75-41.95-18.76-86.69-38.95-126.03-8.5-12.98-18.32-25.96-32.06-33.73-14.3-6.37-31.26-12.33-46.87-7.92-31.92,11.75-45.64,44.4-55.98,74.29-5.87-22.48-17.95-43.18-38.16-55.48-15.69-13.73-36.01-16.25-56.09-15.83-50.91-2.01-98.86,27.31-134.89,61.03C39.6,275.57,4.76,342.32.4,439.12c-1.8,28,2.8,56.49,8.82,83.77,16.71,43,43.38,81.31,75.86,113.96-2.74,32.46.58,65.14,11.69,95.83-31.32-24.65-81.15-18.06-83.79,27.85-3.23,22.9-4.91,46.38-2.93,69.45,5.2,20.4,8.5,41.54,16.9,60.96,18.83,41.77,41.21,82.18,71.7,116.58,20.37,30.63,47.6,55.15,73.07,81.38,10.37,11.22,21.87,21.21,33.82,30.69,17.27,17.57,36.39,32.9,55.96,47.8,10.67,8.76,23.16,14.67,34.97,21.63,15.61,11.02,32.8,19.22,50.78,25.58,17.47,7.91,35.94,13,54.66,16.96,19.23,5.22,38.06,12.06,57.93,14.63,24.68,3.06,48.25,12.66,73.43,11.62,7.18-1.6,15.25-2.2,22.17-5.03,22.35,16.36,45.55,31.57,69.54,45.57,83.91,37.44,178.97,48.34,270.03,38.15-15.17,30.55,14.79,56.84,37.84,72.5,15.94,10.07,33.68,18.07,52.24,21.71,21.14,2.19,42.5,4.71,63.78,4.44,45.11-2.87,90.41-7.14,134.22-18.8,46.89-12.93,93.05-32.46,132.57-61.02,37.78-30.46,74.07-64.12,96.9-107.61,11.75,27.84,44.29,37.48,72.01,30.87,31.21-4.75,72.45-43.66,100.77-74.45,22.14,27.29,73.15-50.99,85.41-69.68,16.52-28.25,36.67-54.5,50.46-84.23,25.92-55.19,45.48-113.63,49.89-174.72ZM1460.9,276.15c8.88-1.45,16.57-7.19,25.88-5.6,38.05.11,69.23,26.2,95.06,51.54,22.91,26.92,38.54,59.74,47.92,93.66,2.39,12.99,4.44,26,8.06,38.73,5.51,21.17,4.93,43.11,2.43,64.68-.22,16.89-3.18,33.46-8.58,49.26-2.69-15.06-7.16-30.8-13.57-47.56-18.23-48.57-51.88-88.69-77.18-133.44-13.07-22.62-30.2-42.54-45-64.02-15.04-17.3-32.62-32.22-51.4-45.35,4.85.02,10.27-.58,16.36-1.91ZM794.3,100.59c7.64-9.84,14.83-21.6,26.28-27.31,17.39-5.79,34.62-11.96,51.74-18.52,97.43-13.85,208.66-16.11,294.28,39.46,34.23,21.67,53.11,63.65,92.83,77.16,16.61,5.49,34.67,5.99,52.03,5.23,21.49-2.47,43.3-4.12,64.79-.68,15.89,1.73,23.66,12.75,24.22,27.96,2.01,18.94,3.67,38.68,10.47,53.03-39.82-19.54-81.21-14.12-118.72,16.16-26.28,21.78-52.37,43.89-75.28,69.27-26.39,25.53-52.02,51.64-75.32,80.03-23.57,30.02-46.59,61.01-74.53,87.2-26.54,27.89-59.1,48.33-89.41,71.53-17.91-25.07-48.34-25.96-77.12-19.25.58-3.03.88-6.3.85-9.78,2.27-22.58-5-44.45-8.94-66.45-3.19-18.91-7.79-37.5-13.77-55.73-4.32-10.56-4.98-21.17-3.54-32.39.32-23.57,2.43-47.29-.8-70.75-3.2-19.68-4.45-39.95-11.75-58.7-5.45-13.08-13.18-25.05-19.89-37.51-6.18-11.07-14.93-20.28-22.35-30.46-6.96-11.13-12.44-23.08-18.79-34.54-12.95-18.54-20.28-44.56-7.27-64.97ZM976.33,625.44c10.76,17.07,28.85,26.47,45.26,37.11-20.03,6.69-40.98,19.19-62.62,13.63-.43-.16-.86-.34-1.25-.57-5.97-7.79-.57-15.63,3.67-22.74,5.38-8.92,10.95-17.77,14.94-27.43ZM869.12,501.61c3.31,17.37,7.21,35.47,6.43,53.1-7.77-11.15-4.84-38.49-6.43-53.1ZM848,333.84c-5.35-15.16-10.23-30.46-15.18-45.75-6.65-17.66-13.04-35.39-19.71-53.04,8.41,12.5,16.73,25.1,21.3,39.6,7.94,18.88,14.81,38.4,13.58,59.18ZM88.3,601.18c-28.81-34.4-49.07-66-58.54-110.42-9.6-82.28,10.7-159.42,58.88-226.72,24.07-32.65,54.03-62.77,90.98-80.41,19.48-10.85,42.08-15.61,64.29-14.33,10.47,2.03,20.17,6.87,30.57,9.31,37.38,15.8,33.97,66.88,33.95,101.01-1.88,33.09-4.35,66.13-6.87,99.18-3.62,24.48-.95,48.94-.18,73.5,1.66,32.76,4.12,65.55,11.27,97.64-26.21-22.48-58.46-37.58-92.41-43.82-40.78-11.29-81.13-1.9-98.56,39.96-18.74,12.39-30.71,32.91-33.38,55.1ZM334.87,610.31c23.05,26.91,41.89,57.88,54.95,90.79-36.04-38.71-63.88-83.9-98.64-123.66-8.51-10.24-20.26-16.73-31.31-23.82-13.1-9.08-27.21-16.58-42.48-21.31,46.73,11.66,88.67,39.39,117.47,78ZM332.1,503.73c1.95,7.45,2.99,15.05,2.79,22.76-1.06-7.57-1.98-15.16-2.79-22.76ZM114.44,615.85c.74-5.82,1.52-11.63,2.45-17.42,2.77,14.91,7,29.54,13.47,43.28-5.93-4.84-11.73-8.96-17.29-14.7.43-3.72.9-7.44,1.38-11.16ZM111.3,661.38c19.46,16.13,39.09,31.95,55.06,51.72,16.66,16.85,27.56,38.57,43.05,56.42,21.41,20.13,42.37,40.75,63.56,61.14,11.57,9.66,21.98,22.93,36.89,27.21,22.22.92,17.47-26.05,2.2-33.47-14.76-14.88-30.85-28.45-46.46-42.48-24.9-25.97-49.23-52.56-72.26-80.21-9.81-10.94-15.8-24.3-22.42-37.24-15.16-26.47-26.4-56.31-29.53-86.36.57-5.28,1.67-10.5,2.86-15.68,31.15-19.97,68.4-6.45,97.75,10.47,16.32,11.99,31.14,26.3,45.44,40.62,24.27,28.88,43.09,61.94,68.43,89.89,10.43,10.79,19.72,24.83,34.28,30.13,12.67,4.33,27.75-3.32,28.77-17.34,2.63-37.24-44.91-97.48-66.53-128.42,8.67-10.03,13.28-23.77,10.48-36.93.33-12.55-1.32-24.83-3.8-37.11-.62-23.3-4.68-46.26-6.93-69.43-4.54-36.88-9.37-73.89-8.4-111.11-2.57-24.7-.77-48.96,4.12-73.39,6.75-30.4,13.32-63.87,36.28-86.56,57.97-32.22,74.96,66.65,85.91,104.54,12.17,28.63,23.88,117.38,64.24,112.62,9.97-1.04,18.73-7.05,22.74-16.3,11.58-25.22-6.04-50.26-14.89-73.35-10.28-21.68-18.74-44.83-20.05-68.97-2.58-55.92,14.63-112.1,42.91-160.03,22.76-31.39,66.7-50.84,105.14-43.38,40.58,10.02,68.66,46.59,81.02,84.92,8.35,28.47,16.77,56.84,21.36,86.18,7.76,24.01,16.84,47.67,25.73,71.31,15.69,49.6,33.95,98.35,49.09,148.13.34,10.29-.95,20.47-2.61,30.6-2.23,17.46-1.06,35.15-2.09,52.7-2.07,22.02.43,43.7,8.76,64.27,1.98,4,4.18,7.35,6.53,10.09-18.84,7.48-38.8,4.69-58.34,1.31-32.1.35-85.85-28.12-110.1-.58-20.21,23.8-.45,57.49,23.61,69.73,29.65,18.66,79.95,12.81,95.05,49.68,3.48,8.33-.05,16.2-.3,24.66.64,16.51,3.06,34.82,14.9,47.29,34.84,34.8,75.25,42.75,117.08,14.53,33.39,20.64,15.06,64.05,66.8,83.16,27.3,8.23,49.21-15.85,74.01-21.83,23.39-3.97,32.88,12.87,12.12,27.95-20.67,15.81-51.96,31.06-46.48,62.25,3.57,26.4,61.82,71.49,11.47,84.41-15.38,3.61-38.86,3.06-38.55-17.85,1.06-8.45,3.48-16.98,1.76-25.61-2.7-14.51-11.62-30.87-27.55-33.2-14.16-.6-29.2,5.7-42.72-1.42-43.25-22.24-17.84-27.6-35.17-61.5-14.95-35.59-63.38-30.7-91.49-14.67-12.83,5.54-23.46,14.47-34.1,23.31-8.03,5.06-13.63,17.73-24.32,15.81-6-15.53,20.34-37.57,22.97-58.44,2.92-11.99-4.24-24.97-15.79-29.16-9.23-3.06-19.67-2.12-27.99-7.88-12.86-16.46-24.25-34.06-33.58-52.76-8.92-20.17-12.26-45.08-30.8-59.31-12.79-9.14-30.2-12.68-44.87-6.1-8.82,3.95-15.59,11.31-22,18.36-7.33,9.47-11.79,21.28-23.7,26.19-12.31,5.44-26.04,7.16-39.28,9.02-10.99.57-22.5-.91-32.96,3.28-16.75,6.65-29.32,26.66-21.28,44.2,10.53,28.33,41.16,39.15,68.7,43.31,15.69,1.54,31.74.01,47.18,3.74,25.94,7.59,58.99,25.78,17.03,43.03-10.84,3.4-22.51,3.51-33.79,4.33-8.53-.17-17.03-4.38-25.5-1.91-48.6,19.81-18.72,78.15,18,93.1,25.89,16.55,46.83,12.4,75.34,8.38,19.34-2.71,21.17-5.6,35.71,10.49,10.41,14.93,8,36.65,24.78,47.28,17.97,9.46,41.78,11.17,60.58,3,16.49-7.83,28.72-17.65,32.6-36.22,14.22-11.78,32.75-6.88,48.67-1.63,17.38,6.74,37.39,11.35,50.3,25.62,28.26,29.07,8.32,28.99-6.95,40.69-44.87-19.19-99.3-.94-125.47,39.81-8.38,11.74-16.92,23.5-23.33,36.46-7.26,15.64-13.14,33.12-24.63,46.14-15.36,11.6-11.72-51.75-17.11-60.92-5.91-19.44-13.17-39.02-26.85-54.42-10.75-11.19-19.73-24.05-31.09-34.61-9.29-7.86-19.61-14.35-29.38-21.6-35.21-23.33-73.94-44.36-115.64-52.62-34.02-1.47-72.59-2.5-99.67,21.57-4.02,4.69-7.47,9.83-10.35,15.27-7.8-7-18.54-11.32-26.42-18.18-60.52-39.09-117.75-82.22-171.52-130.32-35.89-36.56-65.16-79.39-83.83-127.19-6.23-11.64-6.67-24.85-8.74-37.6-2.15-11.6-3.97-23.2-3.66-35.03ZM385.59,1028.94c-2.28-.29-4.55-.69-6.74-1.39-40.37-17.97-74.89-47.36-105.97-78.35,16.13,11.57,30.06,25.98,47.52,35.69,20.99,15.74,44.7,27.8,65.19,44.04ZM520.9,1229.92c-9.86-1.53-20.79-4.42-31.1-4.71-12.99-1.41-25.25-6.52-38.06-8.95-23.99-4.06-47.48-9.48-70.02-18.78-15.03-4.58-29.96-9.44-44.03-16.54-36.74-14.55-66.63-41.01-97.15-65.43-13.76-9.49-25.33-21.6-36.89-33.68-17.66-16.96-36.28-33.17-51.25-52.65-8.88-11.4-19.87-20.89-29.32-31.79-10.3-11.81-18-25.58-26.55-38.64-23.31-30.48-41.14-64.78-53.36-101.17-6.71-16.45-3.69-34.34-5.41-51.62-.18-16.75-1.77-33.77,1.77-50.29,1.54-3.78,5.71-7.97,9.37-10.15-.47.32-.9.61-1.37.94,22.48-7.46,51.81,20.27,62.48,38.51,22.98,25.35,35,57.88,57.34,83.61,37.58,50.02,77.76,98.82,128.54,135.93,24.87,20.02,49.5,45.84,82.83,49.46,5.38.51,10.9.03,15.96-1.35-.19,12.2,1.87,24.43,6.25,35.7,17.1,45.19,54.22,78.97,88.98,111.01,11.65,10.55,23.59,20.73,35.79,30.57-1.6-.02-3.21-.01-4.8.03ZM926.61,1303.58c-45.82,12.53-95.58,10.91-142.64,6.74-22.9-1.06-45.29-5.96-68.05-8.42-13.96-2.89-27.06-8.9-40.85-12.54-20.02-7.77-38.98-18.24-58.58-27.05-36.44-23.15-70.85-49.29-103.16-77.89-16.42-14.82-32.86-29.65-46.82-46.88-16.63-17.08-32.49-35.56-40.57-58.36-8.2-25.11-4.74-55.22,17.2-72.34,9.7-5.07,21.18-5.52,31.77-7.79,18.13-3.74,35.55,3.76,53.29,6.37,37.41,6.83,69.98,29.9,100.42,51.62,11.9,12.38,27.28,21.17,37.81,34.81,22.03,29.65,29.08,54.8,31.35,91.12,1.02,23.18,16.61,49.86,43.16,41.69,14.51-6.21,21.8-21.67,29.68-34.42,13.46-20.81,21.28-45.08,36.75-64.5,41.18-48.81,96.1-38.48,135.1,6.92,56.28,67.28,27.62,109.15-15.89,170.91ZM1356.98,1266.48c-24.13,25.97-55.25,43.16-86.52,59-31.55,18.74-65.82,31.58-99.21,46.46-34.07,11.31-69.21,22.03-105.43,21.89-22.92,1.44-45.79,2.66-68.58-1.13-12.23-.96-24.61-1.27-36.44-4.81-31.08-12.81-33-30.58-18.42-58.44,11.46-8.92,25.56-11.34,39.51-13.63,22.06-3.86,44.25-7.82,66.72-7.68,38.69-2.74,77.27-8.08,115.31-15.85,53-13.52,103.66-35.31,151.44-61.78,12.96-6.95,25.89-14,38.38-21.77,13.57-6.82,26.27-20.48,42.02-20.53,5.44,27.57-21.91,58.41-38.78,78.28ZM1485.27,1251.85c-18.36,5.92-40.47,2.7-48.58-16.83-3.94-17.02-2.26-34.98-.67-52.25,1.04-8.73-2.22-17.25-.28-25.88,1.92-11.2-.72-22.38-1.7-33.54-5.26-64.63,25.85-72.52,45.89-120.67,16.2-43.4-16.24-83.42-17.14-126.48,14.78-25.89,30.23-53.13,30.52-83.78,1.11-18.02,2.21-44.2-16.71-53.35-15.4-15.05-36.41-24.78-57.93-26.54-18.96-2.2-35.23,9.28-53.28,12.29-13.66,3.06-26.04,9.91-39.2,14.48-17.35,5.23-33.45,13.36-49.16,22.27-30.19,16.08-60.98,32.56-88.28,52.92-6.76,8.02-3.27,20.93,6.48,24.61,7.04,2.08,14.86,1.04,22.1.83,9.77-1.45,18.51-6.43,27.18-10.91,13.84-6.84,28.97-11.49,41.11-21.34,28.34-20.15,57.55-39.65,88.02-56.35,20.62-4.64,49.5-9.85,69.18-1.13-20.6,32.99-55.54,101.96-47.8,140.64-16.65,17.3-37.63,29.42-56.98,43.35-16.9,7.01-34.2,13.25-51.21,19.69-8.82,5.05-9.24,19.19.01,24.07,16.48,6.09,35.83-4.02,52.77-5.88,18.2-3.15,35.85-8.25,53.42-13.84,8.78-1.65,17.85-1.31,26.62-2.97,10.04-2.15,20.19-5.62,30.35-2.17,5.23,28.45-7.19,55.96-20.01,80.69-13.51,12.47-27.52,24.52-42.35,35.38-12.24,9.15-27.57,11.45-41.74,16.21-27.06,10.47-54.95,17.51-83.37,23.17-33.03,7.99-67.65,8.69-99.99,19.19-9.2,1.97-22.03,2.86-24.57,13.91-2.67,9.51,6.56,18.36,15.89,17.32,7.98-2.26,16.12-2.36,24.46-3.56,25.86-4.07,51.3-10.3,77.33-13.39,35.89-5.73,147.2-30.71,152.85,23.02-22.81-15.12-80.81,28.91-103.67,40.53-29.59,16.38-60.59,29.89-91.58,43.35-31.87,10.4-64.31,20.71-97.6,25.18-19.87,4.21-40.04,3.1-60.15,4.46-29.64,4.99-59.95,5.93-89.21,13.05,57.44-76.41,39.21-148.41-34.4-204.64,10.4-7.64,19.72-19.15,22.94-31.9.81-12.81-5.4-26.2-14.04-35.48-26.34-21.25-57.1-39.89-91.82-41.07-18.34-1.88-39.59-2.77-52.39,13.03-6.04,8.01-6.55,19.81-13.82,26.73-15.35,5.72-40.8,12.31-49.94-5.87-3.71-10.32-2.82-22.32-11.06-30.92-14.52-20.29-42.39-31.96-66.22-22.04-32.44,9.22-81.61-6.54-85.12-44.82,11.75-6.85,27.33-1.64,40.41-3.13,9.76-.64,19.42-2.54,28.55-6.11,48.23-15.79,47.9-61.86,5-84.59-19.44-8.52-41.22-9.23-61.89-12.92-22.77-2.68-55.99-2.03-62.25-30.06.46-.36.93-.71,1.41-1.04,49.06-22.1,61.53,16.68,115.67-54.54,34.01-30.38,41.58,30.65,51.81,51.81,10,18.48,22.11,36.57,36.7,51.75,10.11,8.36,23.08,12.28,35.64,15.28.15,2.46-.46,4.89-1.54,7.09-7.68,14.49-17.23,28.34-21.46,44.37-9.01,23.18,18.04,48.47,39.92,35.23,36.75-16.55,43.49-43.44,90.42-47.9,18.89-2.81,29.36,13.05,25.72,30.43,1.36,14.48,8.7,29.15,19.67,38.74,13.36,10.4,28.94,20.84,46.37,21.47,32.23-.52,38.48-6.15,32.53,31.24-2.1,14.36,6.17,29.35,18.14,37.05,20.51,14.75,56.22,10.84,76.06-3.43,31.34-22.47,14.55-61.63-5.02-86.1-4.65-8.21-13.35-20.77-6.86-29.71,22.69-19.57,61.62-35.38,55.02-71.68-8.69-30.28-46.31-37.54-71.97-24.7-27.44,16.56-51.29,30.05-67.99-7.85-4.99-17.6-15.54-33.17-26.58-47.56-10.12-11.53-28.91-14.12-42.41-7.45-6.05,2.82-9.8,8.63-15.53,11.85-16.61,3.53-34.6.19-48.68-9.43-29.23-22.23-21.02-34.26-21.7-65.53-5.39-32.49-36.53-51.7-66.29-59.2-15.41-6.34-32.33-8.94-47.23-16.33-7.71-5.81-14.04-14.89-13.74-24.87,4.41-10.47,26.2-1.23,35.68-1.2,18.37,2.46,36.13,7.31,54.19,11.14,32.96,5.06,66.61-2.33,96.92-15.36,17.97-7.67,73.04-14.45,58.13,19.6-11.12,23.14-33.59,51.26-20.83,77.54,11.08,15.38,32.97,18.39,50.81,14.41,22.08-3.4,40.8-17.23,63.44-17.95,1.71,1.64,13.81-3.91,15.44-2.18,1.94,2.35-6.58,11.94-4.63,14.27-43.96,68.69,42.61,97.83,95.15,70.78,33.38-16.03,47.18-54.04,77.36-73.6,15.17-8.27,31.06-15.13,46.36-23.16,21.76-10.04,44.26-18.32,62.62-34.27,28.12-18,53.17-41.63,72.66-68.73,16.03-21.5,11.47-59.55-22.42-45.47-23.4,14.02-45.14,31.2-64.2,50.74-11.15,8.9-22.25,17.87-32.55,27.76-15.19,14.19-29.82,28.96-45.84,42.23-14.65,14.1-30.04,27.07-47.86,37.01-30.09,23.32-80.12,48.72-110.63,13.07,8.98-22.1-13.61-39.84-34.34-38.79-11.27-8.01-22.64-15.88-33.58-24.34-9.39-6.71-20.12-12.84-23.81-24.54,0,0-.09.31-.09.31-.19-.77-.36-1.54-.51-2.32,16.63-18.58,39.83-30.08,58.92-45.96,19.26-15.5,36.96-32.57,53.44-50.99,30.64-36.95,58.96-75.75,93.41-109.38,18.38-21.55,39.01-40.97,59.87-60.08,19.79-20.35,41.19-39.04,64.6-55.14,56.77-33,114.64,22.85,151.63,61.96,19,18.02,27.95,43.17,43.96,63.54,29.05,45.32,61.11,89.6,77.96,141.29,10.87,34.96,11.61,74.44-1.56,108.83-21.47,58.49-63.54,106.12-95.98,158.43-8.89,14.45.39,31.84,17.94,29.22,13.99-3.42,24.64-12.79,35.17-22.41,25.76-26.23,36.57-82.91,83.13-76.76,16.2,10.84,26.9,29.12,31.09,48.17,9.5,22.02,12.71,34.68,18.73,68.48,8.7,42.72,1.67,86.8.42,104.78-6.85,20.25-15.5,39.92-21.71,60.47-35.09,71.66-77.19,141.48-138.3,194.14-13.4,11.11-26.47,23.69-43.19,29.52ZM1413.82,910.32c.37-.36.73-.73,1.09-1.09,8.35,2.33,17.23-.16,23.9-5.49,2.37,7.1,5.75,13.85,7.68,21.09-11.8.85-23.83-.49-35.43,2.17-8.65,1.85-16.57,6.16-25.19,8.05,9.55-7.97,19.07-15.99,27.94-24.72ZM1457.36,776.71c1.79,30.73-16.39,57.24-32.95,81.56,7.56-28.42,18.47-55.95,32.95-81.56ZM1408.49,1119.24c-1.89-1.33-3.84-2.57-5.91-3.63-9.28-4.76-19.49-7.22-29.46-10.11,11.35-6.05,22.44-12.54,34.05-18.12-.65,10.65,1.41,21.21,1.31,31.86ZM1073.16,737.59c.12.34.24.68.37,1.01-2.99-6.12-.1-12.56,2.85-18.07,21.48,18.79,53.78,21.24,79.96,11.77-22.32,16.1-39.73,23.92-67.41,16.02-5.99-2.27-12.83-5.51-15.98-11.35.19.56.21.58.22.61ZM1307.12,624.34c14.17-11.75,26.48-25.63,40.94-37,14.47-9.19,25.81-22.18,39.56-32.26-10.14,19.49-26.88,33.41-44.58,45.77-11.32,8.85-22.66,17.74-35.92,23.5ZM1708.32,1014.94c-9.26,21.81-23.1,41.29-33.46,62.59-7.81,13.01-15.95,26-24.46,38.81,14.11-22.98,26.54-46.93,36.06-72.15,11.03-20.71,22.62-41.45,24.85-65.28,2.55-12.85,7.95-25.15,8.62-38.34.64-11.57-.87-23.09-.66-34.66-2.58-22.74-2.47-34.02-5.04-50.9-1.28-16.91-10.25-31.51-15.04-47.4-3.81-25.83-11.73-54.59-31.58-72.71-23.68-19.29-54.09-22.19-77.81-1.4,14.25-23.19,25.48-44.85,33.16-66.27,5.92,7.5,13.11,14.71,20.71,21.8,9.09,13.28,21.54,23.31,33.33,34.01,10.88,12.93,19.23,27.85,29.68,41.17,30.81,49.68,42.79,84.43,34.43,143.36-9.36,36.26-18.84,72.52-32.8,107.36Z"/></g></svg>