<?xml version="1.0" encoding="UTF-8"?><svg id="Layer_2" xmlns="http://www.w3.org/2000/svg" viewBox="0 0 2090.36 1497.03"><defs><style>.cls-1{stroke-width:0px;fill:#b4ada5;}</style></defs><g id="Vector_layer"><path class="cls-1" d="M2086.65,1083.82c6.75-34.75,4.12-70.71-6.56-104.43-7.01-21.07-12.45-43.14-25.14-61.68-8.37-11.01-13.33-23.87-19.38-36.17-6.95-12.59-17.22-22.9-23.7-35.82-22.36-27.25-5.64-36.18,10.27-60.06,12.62-17.89,21.75-38.08,31.35-57.69,7.21-17.5,7.71-36.93,9.93-55.53,2.9-22.14,7.62-44.57,3.14-67.05-4.37-49.67-16.65-100.97-48.47-140.57-22.89-23.98-48.03-50.17-81.75-57.08-9.49-.94-18.99.9-28.51.07-45.26,7.88-17.95-47.07-23.33-71.08-1.65-27.43-20.83-37.4-44.38-45.2-33.74-11.87-72.35-5.44-103.69-24.71-23.83-18.95-33.85-49.82-53.63-72.42-45.01-55.16-114.35-87.21-182.57-103.15-33.33-6.95-67.03-14.33-101.03-16.7-20.78,1.85-41.69-1.38-62.36,1.3-12.32,1.69-23.69,6.97-35.49,10.56-15.42,3.31-29.43,12.01-37.63,25.68-23.24-92.57-93.97-135.83-184.74-98.99-43.02,23.9-70.94,66.66-90.71,110.49-14.77,37.04-28.63,75.44-25.17,116.01,1.48,15.21,5.1,30.14,8.43,45.03,2.9,13.1,14.39,39.74,1.74,49.33-9.04-17.16-8.31-39.9-12.97-58.89-4.11-43.65-1.06-88.69-12.98-131.27-5.74-14.42-12.76-29.1-24.67-39.45-12.74-9.1-28.17-18.33-44.34-17.12-33.62,5.14-53.59,34.38-69.69,61.6-1.26-23.2-8.96-45.9-26.31-61.98-12.63-16.59-32.03-23.12-51.79-26.72-49.48-12.15-102.32,7.01-144.36,32.85-76.23,57.07-123.7,115.51-147.32,209.49-7.36,27.08-8.55,55.91-8.1,83.84,7.78,45.48,26.26,88.34,51.56,126.82-9.17,31.26-12.44,63.94-7.69,96.23-25.76-30.41-75.91-33.91-87.66,10.55-7.74,21.79-14.08,44.46-16.74,67.46,1.02,21.03.03,42.4,4.38,63.1,2.39,10.56,5,21.09,7.88,31.54-16.25,1.4-32.32,4.74-47.47,11.14-26.58,5.04-50.9,16.37-75.64,26.77-46.43,16.02-87.08,44.1-128.39,69.99-45.04,33.44-86.36,72.96-122.33,115.93-2.25,2.43-3.79,5.42-4.64,8.65-5.06,5-5.47,13.88-.14,19.08,1.89,2.01,4.02,3.13,6.26,3.6.17.16.34.32.51.47,0,0-.22-.25-.39-.45,0,0,0,0,.01,0,7.55,8.69,19.12,11.94,29.01,17.21,13.28,5.16,27.84,4.83,41.74,7.19,19.77,4.56,39.7,5.31,59.89,4.32,20.16.8,40.31-.01,60.46-.72,11.86-.36,23.56-2.44,35.38-3.36,21.08-.85,42.24-.99,62.88-5.92,19.77-4.19,39.6-8.13,59.37-12.27,17.73-4.78,35.28-10.31,52.59-16.52-12.32,11.74-24.53,23.57-34.8,37.23-11.17,15.17-25.19,27.98-35.97,43.43-8.63,14.81-20.87,27.83-27.88,43.4-19.79,31.32-35.32,65.95-53.04,98.71-13.39,27.24-33.3,55.57,1.63,75.87,17.05,10.89,38.22,11.96,57.68,15.43,15.61,4.26,31.71,3.54,47.7,2.68,16.49-.74,33,.79,49.48.12,16.08-1.42,31.88-5,48.05-5.87,38.09-4.28,75.86-10.82,113.78-16.02,29.61-9.02,60.24-14.2,89.52-24.29,46.43-13.97,92.09-30.67,135.75-51.83,10.71-5.52,21.5-10.9,32.24-16.37.5-.26.97-.56,1.42-.89,13.5,13.96,27.51,27.46,42.03,40.43,74.73,53.45,165.71,83.12,256.96,91.33-20.97,26.91,3.14,58.65,22.59,78.6,13.61,13.05,29.39,24.44,46.85,31.71,20.27,6.37,40.7,13.11,61.61,17.1,44.78,6.2,90.02,11.06,135.27,8.39,48.53-3.31,97.66-13.22,142.09-33.3,43.1-22.3,85.39-48.03,116.45-86.08,5.95,29.63,35.91,45.57,64.39,44.63,31.53,1.58,79.71-28.3,113.62-52.82,16.24,31.17,81.86-35.35,97.61-51.22,21.83-24.38,46.82-46.08,66.27-72.45,36.43-48.89,67.26-102.25,83.79-161.23ZM1902.44,434.59c8.99.36,17.67-3.74,26.48-.31,37.26,7.71,62.59,39.5,82.85,69.49,17.07,30.96,25.83,66.23,28.24,101.35-.25,13.2-.85,26.37.16,39.56,1.17,21.84-3.79,43.23-10.54,63.86-3.59,16.51-9.8,32.15-18.25,46.55.38-15.29-.86-31.61-3.79-49.31-8.16-51.24-33.12-97.27-48.96-146.17-8.29-24.77-21.09-47.72-31.3-71.72-11.28-19.96-25.53-38.08-41.3-54.71,4.75.99,10.18,1.48,16.41,1.4ZM1284.36,129.39c9.46-8.11,18.85-18.21,31.2-21.51,18.19-2.2,36.31-4.8,54.4-7.81,98.23,5.9,207.68,25.9,280.46,97.46,29.21,28.07,39.32,72.98,75.55,94.15,15.18,8.7,32.78,12.79,49.93,15.52,21.55,1.87,43.25,4.61,63.62,12.28,15.23,4.87,20.64,17.22,18.15,32.24-1.82,18.95-4.13,38.63-.33,54.05-35.11-27.1-76.76-30.06-119.55-7.89-30.1,16.09-60.08,32.54-87.6,52.83-30.96,19.74-61.29,40.2-89.79,63.37-29.09,24.7-57.84,50.47-90.45,70.55-31.58,22.02-67.56,35.55-101.9,52.23-12.54-28.14-42.18-35.1-71.72-34.27,1.17-2.85,2.12-5.99,2.79-9.41,6.74-21.67,3.98-44.55,4.51-66.9.65-19.16-.14-38.3-2.36-57.36-2.12-11.21-.65-21.74,3-32.44,5.02-23.03,11.83-45.85,13.35-69.48.8-19.93,3.62-40.03.22-59.87-2.72-13.91-7.91-27.18-11.99-40.73-3.84-12.08-10.57-22.85-15.82-34.31-4.59-12.29-7.57-25.1-11.51-37.6-8.98-20.75-10.96-47.72,5.86-65.11ZM1357.85,680.02c7.13,18.87,22.98,31.7,36.93,45.4-20.97,2.55-43.99,10.61-64.08.84-.39-.24-.77-.5-1.12-.81-4.29-8.82,2.56-15.43,8.14-21.55,7.05-7.66,14.28-15.23,20.12-23.89ZM1277.54,537.27c-.22,17.68-.02,36.2-4.31,53.31-5.39-12.48,2.95-38.68,4.31-53.31ZM1290.37,368.66c-2.21-15.92-3.94-31.89-5.73-47.86-2.99-18.63-5.71-37.28-8.71-55.9,5.74,13.93,11.37,27.94,12.96,43.06,4,20.09,6.84,40.58,1.48,60.7ZM492.57,478.83c-21.35-39.46-34.89-74.48-35.29-119.89,7.03-82.54,42.34-154.06,102.99-210.38,30.11-27.18,65.48-50.71,105.21-60.61,21.25-6.74,44.35-6.89,65.85-1.19,9.85,4.08,18.39,10.77,28.09,15.23,33.47,22.95,19.92,72.32,13.09,105.76-8.45,32.05-17.47,63.93-26.55,95.81-8.43,23.26-10.71,47.77-14.86,71.98-4.92,32.43-9.06,65.06-8.47,97.92-21.19-27.27-49.78-48.5-81.79-61.4-37.7-19.21-79.12-18.07-104.55,19.46-20.83,8.4-36.67,26.11-43.71,47.32ZM732.35,537.03c17.21,30.97,29.48,65.08,35.71,99.94-27.58-45.13-45.82-94.97-71.94-140.88-6.29-11.73-16.51-20.44-25.92-29.6-11.02-11.51-23.35-21.68-37.37-29.36,43.46,20.77,79.01,56.31,99.52,99.9ZM750.93,432.05c.42,7.69-.08,15.34-1.81,22.85.47-7.63,1.09-15.25,1.81-22.85ZM515.26,498.42c1.89-5.56,3.82-11.09,5.88-16.58-.26,15.16.96,30.34,4.55,45.1-4.85-5.92-9.7-11.12-14-17.86,1.17-3.56,2.37-7.11,3.58-10.66ZM503.08,542.41c15.84,19.69,31.91,39.12,43.62,61.67,12.96,19.84,19.3,43.29,30.91,63.88,16.96,24.01,33.38,48.4,50.06,72.6,9.41,11.78,16.96,26.86,30.71,34.04,21.59,5.34,22.32-22.03,8.84-32.36-11.49-17.53-24.55-34.04-37.04-50.91-19.2-30.42-37.73-61.34-54.78-93.03-7.43-12.68-10.62-26.96-14.53-40.97-9.56-28.96-14.61-60.45-11.68-90.51,1.62-5.06,3.74-9.96,5.93-14.79,34.51-13.34,68.31,7.34,93.69,29.79,13.59,15.01,25.26,31.99,36.4,48.88,18.01,33.14,29.84,69.3,49.1,101.75,8.06,12.65,14.36,28.27,27.57,36.37,11.55,6.78,27.86,2.29,31.65-11.24,10.02-35.96-24.53-104.49-39.53-139.12,10.5-8.1,17.77-20.64,17.65-34.09,2.83-12.24,3.67-24.59,3.69-37.12,4.05-22.95,4.66-46.26,7.09-69.42,2.92-37.05,5.58-74.27,13.97-110.55,2.42-24.71,9.03-48.12,18.7-71.09,12.69-28.44,25.82-59.92,52.84-77.56,63.24-19.99,60.13,80.28,63.29,119.6,6.2,30.48-.05,119.78,40.44,123.18,9.97.98,19.76-3.17,25.54-11.42,16.39-22.4,4.12-50.45.07-74.85-5.74-23.29-9.41-47.67-5.87-71.58,8.65-55.31,36.73-106.92,74.02-148.23,28.57-26.21,75.51-36.49,111.68-21.5,37.76,17.92,57.97,59.37,62.42,99.4,2.5,29.56,5.08,59.05,3.71,88.71,2.81,25.08,6.98,50.08,10.97,75.01,5.47,51.74,13.61,103.15,18.5,154.95-1.73,10.15-5.02,19.87-8.67,29.46-5.67,16.67-8.06,34.23-12.58,51.22-6.43,21.16-8.31,42.9-4.26,64.72,1.14,4.32,2.63,8.04,4.38,11.2-19.95,3.56-38.95-3.16-57.43-10.37-31.52-6.07-78.51-44.71-107.77-22.57-24.56,19.28-11.93,56.24,9.2,73.04,25.32,24.2,75.77,28.52,83.21,67.67,1.74,8.85-3.29,15.86-5.22,24.1-2.67,16.31-3.96,34.73,5.15,49.32,27.19,41.06,65.19,56.92,111.82,37.63,28.59,26.89,1.95,65.77,48.84,94.83,25.1,13.52,51.38-5.7,76.87-6.61,23.71.78,29.65,19.18,6.29,29.81-23.41,11.36-57.12,20.05-57.98,51.71-1.78,26.58,46.29,82.4-5.63,85-15.79.46-38.69-4.77-34.21-25.19,2.73-8.07,6.81-15.94,6.84-24.74.25-14.75-5.22-32.57-20.36-38.04-13.76-3.41-29.75-.25-41.58-9.92-37.94-30.44-11.96-30.61-22.18-67.29-7.53-37.86-55.96-42.75-86.71-32.65-13.68,2.86-25.87,9.49-38.07,16.03-8.88,3.35-16.9,14.65-26.98,10.63-2.77-16.41,27.44-32.75,34.18-52.68,5.26-11.16.83-25.31-9.64-31.72-8.44-4.84-18.85-6.01-25.86-13.32-9.32-18.69-16.95-38.22-22.36-58.41-4.71-21.55-3-46.62-18.33-64.26-10.7-11.52-27.05-18.46-42.75-14.94-9.43,2.11-17.54,7.96-25.23,13.59-9.08,7.82-15.81,18.5-28.45,20.93-13.15,2.87-26.95,1.81-40.29.99-10.88-1.63-21.86-5.38-32.95-3.37-17.74,3.17-34.06,20.26-29.68,39.05,4.66,29.86,32.51,46.58,58.66,56.16,15.07,4.64,31.1,6.35,45.49,13.09,23.9,12.62,52.65,37.05,8.09,45.57-11.3,1.16-22.76-1.06-33.97-2.51-8.32-1.87-15.81-7.7-24.6-6.97-51.58,9.7-33.96,72.83-.97,94.82,22.06,21.39,43.41,21.51,72.15,23.26,19.49,1.21,21.86-1.26,32.89,17.41,7.22,16.71.52,37.51,14.84,51.28,15.72,12.86,38.7,19.29,58.76,15.05,17.72-4.38,31.66-11.56,39.18-28.98,16.29-8.7,33.46-.2,48.01,8.13,15.68,10.07,34.37,18.59,44.17,35.16,21.88,34.13-8.5,23.11-14.94,38.48-40.13-27.77-97.11-20.76-130.89,13.94-10.55,9.83-21.27,19.65-30.15,31.06-10.24,13.87-19.49,29.83-33.35,40.29-17.36,8.3-1.14-53.05-4.59-63.11-1.91-20.22-5.1-40.87-15.44-58.69-8.3-13.11-14.52-27.51-23.55-40.12-7.54-9.55-16.35-17.98-24.47-27.04-29.84-29.9-63.58-58.23-102.8-74.66-33.04-8.23-70.63-16.96-101.97,1.22-4.87,3.8-9.28,8.14-13.19,12.89-6.25-8.42-15.9-14.8-22.25-23.1-51.49-50.39-98.95-104.09-142.02-161.96-27.86-42.99-47.99-90.81-56.73-141.38-3.78-12.65-1.57-25.68-1.05-38.59.21-11.8.74-23.52,3.42-35.06ZM698.4,957.36c-2.18-.74-4.32-1.58-6.33-2.71-35.96-25.68-63.92-61.37-88.18-97.94,13.49,14.56,24.27,31.46,39.43,44.47,17.42,19.62,38.24,36.17,55.08,56.18ZM402.14,669.37c3.17-16.45,5.01-33.44,11.78-48.92,2.27-3.4,7.19-6.66,11.21-8.08-.52.22-1,.42-1.53.65,23.52-2.82,46.72,30.21,53.52,50.21,17.45,29.43,22.73,63.71,39.48,93.38,26.83,56.52,56.45,112.37,98.79,158.88,20.37,24.59,39.34,54.8,71.28,65.01,5.17,1.57,10.67,2.21,15.91,1.87-2.63,11.92-3.05,24.31-1.01,36.23,7.72,47.7,37.35,88.21,65,126.55,9.3,12.66,18.97,25.02,28.96,37.1-1.57-.34-3.14-.65-4.71-.93-9.36-3.47-19.49-8.48-29.54-10.83-12.45-3.98-23.43-11.43-35.5-16.38-22.7-8.77-44.63-18.78-64.86-32.39-13.81-7.49-27.47-15.23-39.83-25.01-33.09-21.6-57.09-53.49-82.11-83.52-11.59-12.04-20.5-26.23-29.42-40.38-13.91-20.15-28.92-39.75-39.69-61.83-6.42-12.94-15.3-24.44-22.38-37-7.74-13.63-12.53-28.66-18.3-43.16-4.89-10.08-9.24-20.38-13.09-30.87,2.65-6.29-.31-13.03-5.6-16.5-6.31-20.32-10.77-41.23-13.38-62.42-3.29-17.46,3.25-34.38,5.02-51.66ZM485.49,1170.78c-10.62,6.91-22.35,11.62-33.91,16.68-2.81-4.53-8.35-7.47-16.36-5.57-9.55,1.34-18.96-1.56-28.4-2.95-16.68-2.15-33.52-2.48-50.19-4.72-7.97-.67-15.91-1.77-23.86-2.76,1.11-2.17,2.21-4.34,3.29-6.52,12.24-17.32,23.9-35.21,36.88-52.11.75-1.23,1.52-2.45,2.31-3.65,7.83,5.39,21.74,6.1,29.88,9.3,20.03,4.07,39.24,10.85,58.6,17.3,17.93,6.21,36.45,11.87,55.07,16.39-11.31,5.81-22.57,11.74-33.32,18.6ZM354.03,1236.28c-24.32,10.51-48.77,20.73-73.14,31.13,11.41-23.7,24.88-46.54,37.71-69.56,12.62,3.62,32.18,2.41,42.37,4.29,16.75,1.24,33.43,3.67,50.16,5.13-19.14,9.45-38.27,18.92-57.09,29.01ZM553.55,1132.27c-3.43-1.19-7.23-1.18-10.85-1.65-6.23-2.02-12.19-4.95-18.7-6.11-27.04-7.53-53.72-16.44-81.21-22.48-17.01-4.25-33.63-9.9-50.56-14.5,6.83-7.59,14.09-14.84,21.25-22.18,8.81-9.25,16.65-19.37,25.85-28.24,15.87-12.32,30.75-25.63,46.8-37.67,1.96-1.46,4.37-2.12,6.66-2.97,3.58,4.66,7.28,9.23,11.07,13.74,13.41,20.67,29.08,39.51,45.29,58.02,8.71,10.71,19.76,19,29.95,28.18,4.1,4.35,8.4,8.46,12.88,12.36-12.82,7.78-25.89,15.23-38.43,23.51ZM342.19,818.11c14.19-1.66,27.63-6.7,41.8-8.04,2.21-.16,4.39-.69,6.56-1.25,7.03,21.13,15.52,41.72,26.07,61.38-7.29,1.15-14.57,2.41-21.83,3.74-.25-.62-.54-1.24-.9-1.84-2.86-5.12-8.81-7.28-13.84-9.71-18.69-13.39-38.81-24.55-58.32-36.69,6.8-2.59,13.58-5.22,20.46-7.59ZM289.22,837.21c5.83,5.81,16,7.92,22.23,13.4,16.33,9.83,31.17,22.14,48.5,30.24-9.4,1.97-18.79,4-28.18,6.05-18.83,5.06-37.65,10.21-56.38,15.64-7.33-3.72-16.42-4.69-23.3-9.57-14.69-6.52-29.95-11.77-45.31-16.59,26.78-14.55,54.09-28.7,82.43-39.17ZM174.88,893.79c1.77-.96,3.54-1.92,5.31-2.89.23.53.49,1.06.8,1.57,4.67,7.61,14.88,7.86,22.27,11.69,10.04,4.03,20.29,7.5,30.49,11.06-17.23,5.54-34.34,11.45-51.26,17.89-27.41,13.65-57.34,21.66-84.3,36.18-10.38,6.06-21.57,10.24-32.66,14.7,34.25-32.72,69.61-64.34,109.35-90.21ZM51.37,1027.44c-2.46-.64-5.17-1.08-7.86-1.65,17.63-8.33,35.09-16.86,52.2-26.29,23.52-8.95,46.38-19.38,69.05-30.24,2.74-.85,5.46-1.73,8.18-2.63-.96,1.17-1.93,2.34-2.89,3.5-11.71,11.84-22.59,24.43-32.94,37.48-7.9,9.75-16.13,19.22-24.19,28.83-.07,0-.13-.01-.2-.02-21.02.87-41.43-2.03-61.34-8.98ZM145.92,1038.74c.09-.08.17-.17.26-.25,11.03-12.59,22.97-24.35,33.68-37.22,13.18-16.29,27.52-31.54,41.37-47.21,2.2-1.84,3.56-4.09,4.23-6.47,8-2.94,16.04-5.79,24.15-8.43,13.11-5.37,26.56-9.65,40.17-13.41-10.85,12.52-19.26,27.04-30.31,39.46-11.22,15.96-22.77,32.17-34.48,48.58-4.76,6.71-12.94,15.51-10.04,23.37-2.58.05-5.17.05-7.76-.02-20.39.92-40.85,2.04-61.26,1.62ZM240.53,1035.08c.52-.76,1.02-1.53,1.49-2.29,6.71-8.33,13.28-16.75,19.88-25.17,15.91-17.43,27.84-37.79,43.09-55.71,5.36-6.27,9.09-13.66,14.15-20.12,4.28-4.51,9.39-9.04,10.53-15.44.03-.15.04-.3.06-.45,13.6-3.13,27.21-6.2,40.68-9.72,8.08-1.47,16.16-2.97,24.24-4.44-2.63,2.8-5.18,5.68-7.42,8.81-16.79,25.69-34.98,50.4-50.85,76.74-4.15,6.02-8.41,12.02-12.91,17.78-5.99,5.44-11.72,13.32-9.11,20.48-12.79,2.01-25.67,3.42-38.63,4.14-11.75,1.78-23.44,3.87-35.2,5.4ZM344.1,1019.77c3.9-5.99,7.43-12.44,11.2-16.21,24.25-29.73,44.11-62.48,66.79-93.31,3.2-3.27,7-6.15,9.16-10.24,12.64,24.47,28.59,47.03,43.58,70.22-8.04,3.71-16.66,9.24-23.71,11.59-34.21,16.18-70.1,29.43-107.02,37.95ZM290.88,1308.2c-4.92-2.62-14.6-3.11-19.2-6.92,4.32-1.86,8.51-3.98,12.09-5.31,16.44-7.16,32.99-14.02,49.33-21.41,11.19-5.6,22.49-10.92,33.89-16.04-10.94,16.54-19.59,34.53-27.35,52.75-.49,1.24-.79,2.43-.96,3.59-16.19-.25-32.15-2.09-47.79-6.67ZM408.16,1314.82c-13.87,1.97-27.78,2.88-41.67,2.4,4.92-11.49,11.56-22.12,17.6-33.06,6.64-10.28,10.62-22.72,19.92-30.97,3.91-3.93,4.67-8.58,3.5-12.67,12.59-6.18,24.97-12.8,37.9-18.3,14.04-7.02,27.74-14.66,41.61-22-2.34,11.28-2.86,22.95-2.92,34.55-1.82,16.59-4.97,32.99-6.99,49.55-.29,8.29-4.59,17-4.41,25.29-21.44,2.67-42.91,4.36-64.53,5.21ZM569.91,1293.19c-22.57,7.18-45.83,9.82-69.16,12.72.52-3.25.95-6.51,1.82-9.4,4.72-19.63,7.7-39.62,8.47-59.8,1.33-12.55,2.49-25.12,3.23-37.71,2.04-4.81,5.54-9.6,5.18-14.84,17.87-9.78,34.03-22.24,52.97-30.08,9.37-5.26,17.14-11.82,26.95-16.92,5.55-3.23,10.05-7.79,15.38-11.22,2.95,1.94,5.95,3.83,8.98,5.65,3.91,2.83,7.92,5.5,12.01,8.02.56,9.76-1.7,19.21-2.61,28.91-.3,20.14-3.57,39.98-5.24,60.03.03,10.89-5.93,42.95-2.29,53.61-18.35,4.72-36.91,8.53-55.71,11.02ZM782.2,1226.39c-31.37,13.54-63.05,26.5-95.59,36.96-12.3,4.33-24.7,8.43-37.21,12.18,1.93-14.68,5.34-29.16,6.66-43.95,1.64-12.47,2.43-25.02,2.92-37.58,1.29-12.7,3.64-25.41,2.45-38.22-.05-.78-.04-1.54,0-2.31,4.13,1.96,8.29,3.85,12.49,5.67,17.8,8.95,34.88,19.43,53.84,25.91,23.57,7.93,44.74,22.04,69.63,26.06,5.92-.11,12.27.53,18.35.07-.64.35-1.27.71-1.88,1.05-10.46,4.94-21.09,9.48-31.66,14.17ZM1173.64,1334.56c-47.4,3.12-95.83-8.4-141.11-21.9-22.23-5.61-43.19-14.89-65-21.84-13.1-5.62-24.73-14.13-37.52-20.44-18.07-11.61-34.55-25.66-51.99-38.21-31.08-29.96-59.57-62.45-85.52-96.93-13.13-17.8-26.27-35.62-36.51-55.29-12.88-20.06-24.73-41.33-28.09-65.29-3.02-26.24,6.39-55.05,31.31-67.44,10.52-3.03,21.86-1.18,32.69-1.29,18.51-.04,34.09,10.79,50.94,16.89,35.29,14.17,62.59,43.28,88.09,70.64,9.19,14.51,22.5,26.19,30.09,41.67,15.67,33.45,17.54,59.51,12.51,95.55-3.63,22.92,6.31,52.17,33.96,49.48,15.46-3.18,25.69-16.88,35.96-27.8,17.35-17.7,29.86-39.92,48.9-55.86,50.11-39.6,101.85-18.5,130.99,33.78,41.7,77.16,5.25,112.47-49.72,164.29ZM1602.74,1384.19c-28.84,20.62-62.76,31.26-96.56,40.52-34.66,12.06-70.81,17.79-106.49,25.7-35.65,4.27-72.21,7.76-107.68.38-22.75-3.17-45.4-6.54-66.97-14.81-11.79-3.38-23.86-6.16-34.74-11.99-27.89-18.76-26.23-36.56-6.37-60.94,13.01-6.45,27.31-6,41.43-5.47,22.39.63,44.92,1.18,66.91,5.8,38.46,5.05,77.33,7.53,116.15,7.51,54.63-2.66,108.62-13.89,160.73-30.28,14.08-4.22,28.17-8.54,41.96-13.66,14.66-3.97,29.83-14.82,45.27-11.72-.18,28.1-33.14,52.85-53.64,68.95ZM1731.37,1395.49c-19.17,2.14-40.19-5.44-44.24-26.19-.46-17.46,4.78-34.72,9.78-51.33,2.76-8.35,1.27-17.35,4.89-25.41,4.12-10.59,3.77-22.07,5.03-33.2,7.76-64.38,39.81-65.9,69.08-109.07,24.54-39.29.76-84.98,8.47-127.36,19.65-22.42,40.23-46.02,46.64-75.99,4.68-17.43,11-42.87-5.71-55.61-12.08-17.82-30.73-31.56-51.46-37.58-18.14-5.95-36.38,2.05-54.66,1.4-13.99.27-27.49,4.51-41.3,6.36-18.05,1.66-35.44,6.41-52.61,12-32.79,9.72-66.25,19.72-97.07,34.22-8.22,6.51-7.39,19.85,1.44,25.41,6.48,3.44,14.35,3.98,21.49,5.23,9.86.53,19.43-2.6,28.81-5.26,14.92-3.94,30.69-5.47,44.54-12.7,31.8-14.08,64.31-27.35,97.5-37.63,21.14-.43,50.47.23,68.01,12.72-26.78,28.21-74.79,88.8-74.94,128.25-19.77,13.62-42.75,21.31-64.49,31.09-17.96,3.49-36.16,6.15-54.11,9.06-9.65,3.19-12.88,16.96-4.8,23.59,14.93,9.26,35.92,3.22,52.88,4.78,18.46.55,36.78-.92,55.11-2.89,8.94.13,17.75,2.28,26.68,2.41,10.26-.1,20.9-1.47,30.18,3.94-.56,28.92-18.22,53.4-35.73,75.06-15.73,9.51-31.86,18.53-48.57,26.21-13.82,6.52-29.3,5.71-44.14,7.54-28.61,4.85-57.34,6.17-86.32,6.05-33.96,1.23-68.02-5.01-101.81-1.17-9.4.09-22.16-1.6-26.86,8.72-4.52,8.78,2.76,19.3,12.11,20.15,8.28-.62,16.27.91,24.68,1.39,26.15,1.18,52.32.16,78.44,2.33,36.31,1.56,150.37-.68,145.16,53.09-19.32-19.38-84.96,12.18-109.68,19-32.26,10.14-65.34,17.18-98.39,24.17-33.31,3.82-67.15,7.45-100.66,5.17-20.31.15-39.85-4.96-59.83-7.65-30.04-1.04-59.92-6.17-90.02-5.04,71.55-63.39,68.07-137.59,7.18-207.38,11.72-5.41,23.15-14.82,28.85-26.67,3.36-12.39-.06-26.75-6.67-37.57-21.56-26.09-47.97-50.5-81.77-58.59-17.59-5.5-38.24-10.63-53.94,2.3-7.52,6.64-10.37,18.11-18.89,23.43-16.19,2.54-42.44,3.91-47.77-15.73-1.57-10.85,1.7-22.43-4.66-32.5-10.17-22.78-35.15-39.78-60.48-34.83-33.63,2.55-78.66-22.71-74.45-60.92,12.88-4.37,27.1,3.85,40.22,5.01,9.69,1.32,19.53,1.39,29.19-.29,50.41-5.84,59.29-51.04,21.8-81.89-17.34-12.24-38.54-17.28-58.06-25.03-21.77-7.17-54.46-13.18-54.99-41.89.52-.26,1.05-.51,1.59-.74,52.49-11.85,56.96,28.63,124.23-30.33,39.39-22.97,34.62,38.34,40.41,61.11,6.11,20.11,14.36,40.25,25.62,58.04,8.23,10.21,20.16,16.64,31.87,22.09-.34,2.44-1.43,4.7-2.92,6.64-10.42,12.67-22.54,24.33-29.89,39.19-13.46,20.91,7.99,51.1,32.08,42.5,39.32-8.87,51.29-33.87,98.17-28.87,19.07,1.02,26.17,18.65,19.12,34.96-1.56,14.46,2.7,30.3,11.53,41.89,11.02,12.86,24.19,26.2,41.15,30.3,31.68,5.93,38.94,1.66,25.63,37.11-4.92,13.66.18,29.99,10.37,39.93,17.15,18.55,52.92,21.85,75.21,11.83,35.2-15.76,26.57-57.48,12.28-85.37-2.92-8.98-8.93-23.01-.79-30.48,26.14-14.64,67.45-22.36,68.23-59.24-2.47-31.4-37.88-46.04-65.58-38.58-30.2,10.74-56.26,19.2-65.05-21.28-1.37-18.25-8.6-35.61-16.54-51.91-7.61-13.32-25.5-19.62-40.07-15.78-6.49,1.55-11.33,6.5-17.59,8.51-16.98.14-33.94-6.72-45.82-18.97-24.2-27.63-13.75-37.77-8.17-68.54,1.21-32.91-25.46-57.95-53.12-71.25-13.83-9.29-29.89-15.22-43.01-25.44-6.4-7.23-10.79-17.39-8.49-27.11,6.42-9.38,25.91,4.03,35.2,5.95,17.5,6.08,33.94,14.38,50.87,21.74,31.28,11.54,65.73,11.02,98.04,4.31,19.14-3.92,74.45.43,53.04,30.82-15.52,20.45-43.15,43.52-35.9,71.81,7.78,17.29,28.63,24.61,46.9,24.27,22.31,1.08,43.42-8.73,65.75-4.91,1.35,1.95,2.66,3.92,3.91,5.95,1.43,2.69,2.82,5.39,4.27,8.06-56.79,58.52,22.21,104.37,79.09,88.36,35.91-9.04,57.02-43.53,90.5-56.66,16.52-5.07,33.46-8.61,50.05-13.43,23.33-5.49,47.03-9.1,68.21-21.07,31.15-12.02,60.42-30.17,84.92-52.83,20-17.86,23.14-56.06-12.88-49.04-25.73,9.06-50.46,21.55-73.04,36.89-12.7,6.49-25.37,13.06-37.44,20.7-17.72,10.87-35,22.42-53.36,32.22-17.17,10.89-34.84,20.52-54.29,26.7-34.14,16.84-88.24,31.73-111.01-9.3,13.21-19.86-5.38-41.76-25.9-44.87-9.44-10.1-19.01-20.08-28.04-30.56-7.86-8.46-17.15-16.6-18.43-28.8,0,0-.15.29-.15.29-.04-.79-.05-1.58-.03-2.37,20-14.89,45.04-21.52,66.91-33.27,21.97-11.34,42.72-24.53,62.55-39.28,37.4-30.08,72.9-62.45,113.38-88.51,22.32-17.44,46.41-32.35,70.67-46.9,23.46-15.98,48.16-30.02,74.32-41.12,62.22-20.99,107.76,45.29,136.2,91.01,15.02,21.45,18.76,47.89,30.38,71.04,19.41,50.21,41.98,100,48.15,154.02,3.66,36.42-3.5,75.26-23.27,106.32-32.73,53.02-83.46,91.28-125.69,136.06-11.6,12.38-5.98,31.28,11.74,32.22,14.39-.56,26.7-7.61,38.94-14.93,30.48-20.56,52.4-73.93,96.79-58.6,13.7,13.86,20.54,33.9,20.84,53.41,4.91,23.47.39,47.35,4.67,70.84.95,17.1-1.47,34.56-3.92,51.46-6.38,16.86-11.79,33.92-16.6,51.29-10.75,18.47-23.17,36.02-33.35,54.91-48.7,63.2-103.9,123.2-174.3,162.6-15.35,8.21-30.67,17.92-48.21,20.3ZM1729.6,1046.57c.43-.28.86-.56,1.29-.85,7.71,3.95,16.92,3.29,24.52-.61.9,7.43,2.87,14.72,3.32,22.2-11.73-1.53-23.25-5.24-35.15-4.95-8.84.09-17.47,2.72-26.29,2.85,10.95-5.9,21.88-11.86,32.32-18.64ZM1798.95,924.36c-4.38,30.47-27.49,52.81-48.58,73.33,13.09-26.33,29.28-51.13,48.58-73.33ZM1682.63,1250.21c-1.58-1.68-3.25-3.28-5.06-4.74-8.14-6.52-17.66-10.97-26.84-15.79,12.33-3.66,24.49-7.81,36.98-10.96-2.77,10.3-2.86,21.07-5.08,31.48ZM1430.32,809.26c.05.36.1.71.16,1.07-1.71-6.59,2.41-12.32,6.4-17.13,17.29,22.7,48.45,31.56,76,27.51-25.09,11.31-43.71,15.5-69.25,2.23-5.41-3.42-11.47-7.97-13.4-14.31.08.58.09.61.09.64ZM1682.19,745.04c16.23-8.69,31.07-19.83,47.51-28.08,16.02-6.11,29.72-16.57,45.21-23.71-13.83,17.08-33.01,27.37-52.83,35.94-12.86,6.41-25.74,12.85-39.89,15.84ZM1997.26,1207.92c-13.43,19.52-30.88,35.85-45.29,54.65-10.26,11.19-20.82,22.28-31.72,33.14,18.42-19.7,35.38-40.68,49.74-63.49,14.94-18.09,30.45-36.1,37.39-59,5.06-12.08,12.81-23.05,16.11-35.84,2.94-11.21,3.76-22.8,6.28-34.09,5.28-16.48,4.38-33.83,5.23-50.88,2.12-16.82-3.75-32.92-5.26-49.45,1.43-26.07-.58-55.84-16.41-77.55-19.35-23.63-48.57-32.55-75.96-16.92,18.6-19.88,33.93-38.86,45.73-58.31,4.31,8.53,9.9,17.03,15.93,25.5,6.25,14.83,16.44,27.14,25.87,39.98,8.07,14.85,13.28,31.13,20.85,46.27,20.26,54.83,25.06,91.27,5.09,147.35-16.41,33.66-32.94,67.29-53.59,98.64Z"/></g></svg>
