<svg version="1.1" xmlns="http://www.w3.org/2000/svg" viewBox="0 0 691.01171875 836.19140625" width="691.01171875" height="836.19140625">
  <!-- svg-source:excalidraw -->
  
  <defs>
    <style class="style-fonts">
      @font-face {
        font-family: "Virgil";
        src: url("https://excalidraw.com/Virgil.woff2");
      }
      @font-face {
        font-family: "Cascadia";
        src: url("https://excalidraw.com/Cascadia.woff2");
      }
    </style>
    
  </defs>
  <rect x="0" y="0" width="691.01171875" height="836.19140625" fill="#ffffff"></rect><g stroke-linecap="round" transform="translate(10 64.05078125) rotate(0 71.10546875 23.685546875)"><path d="M3.15 2.74 C3.15 2.74, 3.15 2.74, 3.15 2.74 M3.15 2.74 C3.15 2.74, 3.15 2.74, 3.15 2.74 M1.58 10.65 C3.55 6.56, 7.08 5.83, 10.11 0.84 M1.58 10.65 C4.54 7.52, 5.83 5.33, 10.11 0.84 M1.97 16.29 C5.97 12.52, 7.97 9.89, 14.44 1.95 M1.97 16.29 C5.39 12.84, 8.96 8.01, 14.44 1.95 M1.71 22.69 C5.44 18.07, 11.5 12.49, 19.43 2.31 M1.71 22.69 C6.47 16.78, 11.69 12.31, 19.43 2.31 M1.45 29.09 C9.97 18.06, 21.19 8.77, 25.07 1.92 M1.45 29.09 C9.61 17.76, 19.35 7.56, 25.07 1.92 M1.85 34.73 C6.66 29.67, 14.83 20.48, 30.06 2.28 M1.85 34.73 C8.29 27.25, 17.05 18.03, 30.06 2.28 M2.24 40.37 C10.77 28.82, 20.92 18.16, 35.7 1.88 M2.24 40.37 C14.65 26.46, 25.75 13.13, 35.7 1.88 M3.29 45.26 C19.71 28.3, 32.79 9.79, 40.69 2.24 M3.29 45.26 C14.19 32.96, 23.82 22.41, 40.69 2.24 M6.97 47.13 C21.76 30.34, 38.17 12.66, 45.67 2.6 M6.97 47.13 C19.37 32.8, 32.58 18.66, 45.67 2.6 M12.61 46.74 C23.7 34.53, 32.71 23.85, 51.32 2.21 M12.61 46.74 C23.04 33.52, 34.64 21.81, 51.32 2.21 M17.6 47.1 C32.92 32.2, 44.82 17.61, 56.3 2.57 M17.6 47.1 C26.86 36.54, 34.43 27.02, 56.3 2.57 M22.58 47.46 C36.55 31.33, 51.38 11.55, 61.95 2.17 M22.58 47.46 C35.33 33.95, 46.66 20.15, 61.95 2.17 M28.23 47.06 C40.8 33.63, 55.34 16.98, 66.93 2.53 M28.23 47.06 C36.54 38.37, 43.25 29.02, 66.93 2.53 M33.21 47.42 C48.21 29.57, 61.74 14.8, 72.58 2.14 M33.21 47.42 C44.03 35.16, 55.8 21.76, 72.58 2.14 M38.86 47.03 C49.09 34.45, 58.15 26.51, 77.56 2.5 M38.86 47.03 C53.73 30.24, 67.18 15.29, 77.56 2.5 M43.84 47.39 C57.75 33, 73.31 14.12, 82.55 2.86 M43.84 47.39 C53.3 37.24, 61.17 27.55, 82.55 2.86 M49.49 46.99 C62.68 35.47, 70.45 21.6, 88.19 2.46 M49.49 46.99 C61.84 34.86, 73.11 21.46, 88.19 2.46 M54.47 47.35 C61.1 38.29, 69.25 27.83, 93.18 2.82 M54.47 47.35 C66.26 32.61, 76.99 20.02, 93.18 2.82 M60.12 46.96 C73.27 30.81, 84.64 16.32, 98.82 2.43 M60.12 46.96 C69.94 34.83, 80.66 21.92, 98.82 2.43 M65.1 47.32 C73.48 35.83, 86.65 26.47, 103.81 2.79 M65.1 47.32 C78.64 32.14, 91.97 18.02, 103.81 2.79 M70.09 47.68 C85.6 30.67, 98.3 12.05, 109.45 2.4 M70.09 47.68 C81.34 34.02, 94.32 21.42, 109.45 2.4 M75.73 47.28 C89.43 31.61, 102.84 18.22, 114.44 2.76 M75.73 47.28 C85.67 35.55, 96.35 22.65, 114.44 2.76 M80.72 47.64 C91.93 34.98, 103.63 17.52, 119.43 3.12 M80.72 47.64 C90.36 36.8, 98.88 24.6, 119.43 3.12 M86.36 47.25 C101.83 29.55, 117.32 12.7, 125.07 2.72 M86.36 47.25 C99.66 32.13, 111.08 17.18, 125.07 2.72 M91.35 47.61 C104.35 33.22, 117.8 19.95, 130.06 3.08 M91.35 47.61 C103.56 34.45, 114.2 20.27, 130.06 3.08 M96.99 47.21 C103.59 38.71, 113.94 28.96, 136.36 1.93 M96.99 47.21 C106.26 36.64, 117.24 24.44, 136.36 1.93 M101.98 47.57 C111.9 34.49, 126.09 20.88, 140.03 3.8 M101.98 47.57 C114.1 33.1, 128.09 16.65, 140.03 3.8 M106.97 47.93 C114.85 39.44, 121.62 28.8, 141.74 7.93 M106.97 47.93 C117.52 37.38, 125.94 26.56, 141.74 7.93 M112.61 47.54 C120.79 38.54, 126.18 28.87, 144.1 11.31 M112.61 47.54 C125.62 33.32, 137.05 19.84, 144.1 11.31 M117.6 47.9 C122.32 42.89, 130.44 32.85, 144.5 16.96 M117.6 47.9 C126.99 36.5, 135.5 27.33, 144.5 16.96 M123.24 47.51 C127.95 43.64, 132.17 36.33, 144.23 23.35 M123.24 47.51 C129.47 41.35, 136.09 32.69, 144.23 23.35 M128.23 47.87 C131.28 40.54, 137.28 36.59, 143.97 29.75 M128.23 47.87 C132.3 43.29, 136.94 37.23, 143.97 29.75 M132.56 48.98 C136.69 46.03, 136.69 42.77, 143.71 36.15 M132.56 48.98 C136.02 46.4, 138.73 42.29, 143.71 36.15" stroke="#a5d8ff" stroke-width="0.5" fill="none"></path><path d="M11.84 0 M11.84 0 C38.02 2.65, 61.84 0.28, 130.37 0 M11.84 0 C38.21 1.94, 65.76 1.5, 130.37 0 M130.37 0 C139.47 1, 143.75 5.88, 142.21 11.84 M130.37 0 C137.21 0.92, 139.99 4.87, 142.21 11.84 M142.21 11.84 C140.42 17.68, 141.72 25.2, 142.21 35.53 M142.21 11.84 C142.2 20.55, 141.47 28.9, 142.21 35.53 M142.21 35.53 C143.14 42.65, 138.92 45.76, 130.37 47.37 M142.21 35.53 C141.26 45.41, 136.07 48.58, 130.37 47.37 M130.37 47.37 C100.03 46.91, 70.33 46.17, 11.84 47.37 M130.37 47.37 C93.27 45.68, 57.65 45.47, 11.84 47.37 M11.84 47.37 C3.83 47.21, 0.04 43.58, 0 35.53 M11.84 47.37 C3.58 49.37, 2.09 44.62, 0 35.53 M0 35.53 C-0.11 25.56, 1.74 17.16, 0 11.84 M0 35.53 C-0.73 27.14, 0.25 16.41, 0 11.84 M0 11.84 C1.26 4.93, 5.18 0.97, 11.84 0 M0 11.84 C0.62 1.9, 3.42 2.05, 11.84 0" stroke="#000000" stroke-width="1" fill="none"></path></g><g transform="translate(15 78.13632812499998) rotate(0 65.625 9.599999999999994)"><text x="0" y="0" font-family="Cascadia, Segoe UI Emoji" font-size="16px" fill="#000000" text-anchor="start" style="white-space: pre;" direction="ltr" dominant-baseline="text-before-edge">0x01 0x02 0x03</text></g><g stroke-linecap="round" transform="translate(11.80078125 149.404296875) rotate(0 51.5 24.5)"><path d="M3.26 2.83 C3.26 2.83, 3.26 2.83, 3.26 2.83 M3.26 2.83 C3.26 2.83, 3.26 2.83, 3.26 2.83 M1.69 10.74 C4.79 9.22, 6.14 6.4, 10.22 0.93 M1.69 10.74 C4.82 7.44, 8.36 3.46, 10.22 0.93 M1.43 17.14 C5.08 10.94, 12.94 4.63, 14.55 2.05 M1.43 17.14 C7.42 12.34, 11.48 5.83, 14.55 2.05 M1.82 22.78 C7.79 17.76, 9.92 11.78, 20.19 1.65 M1.82 22.78 C6.91 17.54, 10.69 12.89, 20.19 1.65 M1.56 29.18 C10.68 19.58, 16.05 8.86, 25.18 2.01 M1.56 29.18 C6.66 24.1, 10.7 18.88, 25.18 2.01 M1.95 34.82 C14.06 20.7, 22.56 11.87, 30.16 2.37 M1.95 34.82 C12.05 23.95, 21.94 11.12, 30.16 2.37 M1.69 41.22 C7.98 31.97, 17.66 24.23, 35.81 1.98 M1.69 41.22 C14.67 26.87, 25.96 11.6, 35.81 1.98 M3.4 45.35 C12.42 31.5, 21.88 20.01, 40.79 2.34 M3.4 45.35 C14.79 32.81, 25.98 18.39, 40.79 2.34 M5.76 48.73 C19.03 33.54, 30.13 20.75, 46.44 1.94 M5.76 48.73 C15.95 35.19, 26.77 22.13, 46.44 1.94 M10.75 49.09 C25.08 35.85, 34.98 19.45, 51.42 2.3 M10.75 49.09 C25.36 34.29, 38.07 17.14, 51.42 2.3 M14.42 50.96 C25.24 34.64, 40.8 20.23, 57.07 1.91 M14.42 50.96 C31.56 31.52, 47.54 13.07, 57.07 1.91 M20.07 50.57 C36.58 31.78, 51.41 11.57, 62.05 2.27 M20.07 50.57 C35.27 32.37, 49.62 15.57, 62.05 2.27 M25.05 50.93 C33.69 40.39, 45.49 30.76, 67.7 1.87 M25.05 50.93 C39.57 35.58, 52.89 19.97, 67.7 1.87 M30.04 51.29 C42.51 36.46, 56.98 20.61, 72.68 2.23 M30.04 51.29 C39.08 40.34, 49.2 29.9, 72.68 2.23 M35.68 50.89 C47.44 39.9, 56.68 27.08, 78.33 1.84 M35.68 50.89 C52.05 33.69, 66.26 15.86, 78.33 1.84 M40.67 51.25 C53.32 36.02, 69.16 19.85, 83.31 2.2 M40.67 51.25 C53.19 37.93, 64.14 24.78, 83.31 2.2 M46.31 50.86 C62.11 32.31, 78.52 15.58, 88.96 1.8 M46.31 50.86 C57.68 37.06, 69.81 23.8, 88.96 1.8 M51.3 51.22 C59.29 38.98, 72.37 29.04, 93.94 2.16 M51.3 51.22 C64.73 35.51, 79.44 17.72, 93.94 2.16 M56.94 50.83 C69.81 34.76, 86.63 19.59, 98.93 2.52 M56.94 50.83 C72.69 32.66, 90.36 14.37, 98.93 2.52 M61.93 51.19 C77.07 35.49, 89.58 18.3, 101.95 5.15 M61.93 51.19 C76.05 33.49, 92.37 16.74, 101.95 5.15 M67.57 50.79 C76.42 41.59, 82.64 33.63, 103 10.04 M67.57 50.79 C76.25 40.25, 84.99 30.22, 103 10.04 M72.56 51.15 C79.09 44.86, 86.76 36.01, 103.4 15.68 M72.56 51.15 C78.4 43.41, 84.37 36.12, 103.4 15.68 M78.2 50.76 C84.15 41.95, 92.56 33.07, 103.13 22.08 M78.2 50.76 C88.29 39.34, 96.97 28.67, 103.13 22.08 M83.19 51.12 C88.53 45.31, 96.1 36.68, 103.53 27.72 M83.19 51.12 C91.24 41.6, 98.32 33.94, 103.53 27.72 M88.83 50.72 C90.5 47.29, 97.87 43.07, 103.27 34.12 M88.83 50.72 C94.68 44.06, 98.18 39.73, 103.27 34.12 M93.82 51.08 C96.56 47.12, 100.38 44.41, 104.97 38.25 M93.82 51.08 C96.61 47.17, 101.29 42.48, 104.97 38.25" stroke="#a5d8ff" stroke-width="0.5" fill="none"></path><path d="M12.25 0 M12.25 0 C28.51 0, 42.5 2.25, 90.75 0 M12.25 0 C32.14 -0.62, 52.39 1.04, 90.75 0 M90.75 0 C100.71 0.09, 101.8 3.77, 103 12.25 M90.75 0 C97.64 -0.83, 104 5.94, 103 12.25 M103 12.25 C101.33 19.82, 101.63 32.15, 103 36.75 M103 12.25 C102.35 21.13, 102.15 31.06, 103 36.75 M103 36.75 C104.56 46.87, 99.61 50.21, 90.75 49 M103 36.75 C104.15 46.69, 101.13 47.94, 90.75 49 M90.75 49 C62.94 48.31, 35.39 47.65, 12.25 49 M90.75 49 C67.73 49.76, 43.51 49.69, 12.25 49 M12.25 49 C3.6 47.48, -1.71 45.84, 0 36.75 M12.25 49 C3.19 49.75, -1.85 43.96, 0 36.75 M0 36.75 C-0.6 25.33, 0.5 18.11, 0 12.25 M0 36.75 C-0.07 30.3, -1.01 22.9, 0 12.25 M0 12.25 C-1.34 4.43, 2.32 -0.12, 12.25 0 M0 12.25 C-0.18 4.12, 4.26 -0.37, 12.25 0" stroke="#000000" stroke-width="1" fill="none"></path></g><g transform="translate(16.80078125 164.30429687499998) rotate(0 42.1875 9.599999999999994)"><text x="0" y="0" font-family="Cascadia, Segoe UI Emoji" font-size="16px" fill="#000000" text-anchor="start" style="white-space: pre;" direction="ltr" dominant-baseline="text-before-edge">0x04 0x05</text></g><g stroke-linecap="round" transform="translate(14.93359375 236.67578125) rotate(0 4.138671875 25.552734375)"><path d="M-0.29 2.4 C-0.29 2.4, -0.29 2.4, -0.29 2.4 M-0.29 2.4 C-0.29 2.4, -0.29 2.4, -0.29 2.4 M0.11 8.04 C1.82 6.13, 2.96 4.61, 4.7 2.76 M0.11 8.04 C1.05 6.92, 2.71 5.33, 4.7 2.76 M-0.15 14.44 C2.61 10.36, 4.52 9.27, 9.69 3.12 M-0.15 14.44 C3 10.45, 7.79 5.81, 9.69 3.12 M0.24 20.08 C1.78 17.33, 6.21 13.86, 9.43 9.52 M0.24 20.08 C3.9 16.52, 6.5 12.39, 9.43 9.52 M-0.02 26.48 C2.46 23.23, 7.19 20.21, 9.82 15.16 M-0.02 26.48 C2.52 23.58, 5.92 19.96, 9.82 15.16 M-0.28 32.88 C3.43 29.78, 4.96 26.51, 9.56 21.56 M-0.28 32.88 C1.68 30.37, 4.75 26.47, 9.56 21.56 M0.11 38.52 C2.43 35.55, 6.84 32.06, 9.3 27.96 M0.11 38.52 C3.34 34.69, 7.79 30.27, 9.3 27.96 M-0.15 44.92 C4.41 39.72, 7.29 36.44, 9.69 33.6 M-0.15 44.92 C2.92 41.4, 5.54 37.99, 9.69 33.6 M0.9 49.81 C2.58 47.91, 5.61 43.76, 9.43 40 M0.9 49.81 C3.14 46.67, 5.91 43.78, 9.43 40 M3.92 52.43 C5.01 50.49, 6.18 49.02, 9.82 45.64 M3.92 52.43 C5.89 50.77, 7.52 48.28, 9.82 45.64" stroke="#a5d8ff" stroke-width="0.5" fill="none"></path><path d="M2.07 0 M2.07 0 C2.97 -0.21, 4.11 0.12, 6.21 0 M2.07 0 C3.19 -0.16, 4.23 0.11, 6.21 0 M6.21 0 C8.97 0.45, 9.01 1.39, 8.28 2.07 M6.21 0 C9.57 -1.98, 9.89 2.6, 8.28 2.07 M8.28 2.07 C8.66 12.58, 9.73 22.31, 8.28 49.04 M8.28 2.07 C8.53 15.26, 7.49 28.86, 8.28 49.04 M8.28 49.04 C6.95 49.38, 7.58 52.75, 6.21 51.11 M8.28 49.04 C10.35 52.7, 9.64 53.24, 6.21 51.11 M6.21 51.11 C5.12 51.08, 3.76 50.9, 2.07 51.11 M6.21 51.11 C5.14 51.07, 4.25 51.01, 2.07 51.11 M2.07 51.11 C2.45 52.5, -1.17 52.21, 0 49.04 M2.07 51.11 C-1.47 50.3, 2.23 51.76, 0 49.04 M0 49.04 C-0.13 38.39, -0.48 26.48, 0 2.07 M0 49.04 C-1.31 32.15, -0.35 13.45, 0 2.07 M0 2.07 C0.41 0.36, -0.67 -0.56, 2.07 0 M0 2.07 C-0.35 -0.58, -1.03 -1.54, 2.07 0" stroke="#000000" stroke-width="1" fill="none"></path></g><g transform="translate(10.23046875 10) rotate(0 23.4375 9.599999999999994)"><text x="0" y="0" font-family="Cascadia, Segoe UI Emoji" font-size="16px" fill="#1971c2" text-anchor="start" style="white-space: pre;" direction="ltr" dominant-baseline="text-before-edge">Blobs</text></g><g transform="translate(279.12890625 12.759374999999977) rotate(0 51.5625 9.599999999999994)"><text x="0" y="0" font-family="Cascadia, Segoe UI Emoji" font-size="16px" fill="#f08c00" text-anchor="start" style="white-space: pre;" direction="ltr" dominant-baseline="text-before-edge">Directories</text></g><g stroke-linecap="round" transform="translate(283.875 68.3828125) rotate(0 197 72.5)"><path d="M7.86 8.16 C7.86 8.16, 7.86 8.16, 7.86 8.16 M7.86 8.16 C7.86 8.16, 7.86 8.16, 7.86 8.16 M3.66 19.09 C8.28 14.49, 8.49 11.04, 18.1 2.48 M3.66 19.09 C7.7 14.57, 11.52 11.66, 18.1 2.48 M2.75 26.24 C11.51 19.05, 17.92 11.98, 24.4 1.33 M2.75 26.24 C7.23 20.55, 12.55 15.89, 24.4 1.33 M2.48 32.64 C12.12 24.05, 19.28 13.72, 30.7 0.18 M2.48 32.64 C9.16 24.56, 14.83 17.39, 30.7 0.18 M2.88 38.28 C11.43 28.28, 22.31 16.44, 34.37 2.05 M2.88 38.28 C14.6 24.25, 27.89 9.94, 34.37 2.05 M2.62 44.68 C9.32 34.89, 17.39 26.88, 39.36 2.41 M2.62 44.68 C11.95 33.82, 21.66 21.02, 39.36 2.41 M2.36 51.07 C12.81 41.21, 19.43 27.76, 45 2.02 M2.36 51.07 C16.68 33.29, 30.46 16.46, 45 2.02 M2.75 56.72 C16.64 41.98, 28.98 26.21, 49.99 2.38 M2.75 56.72 C21 35.95, 39.52 14.81, 49.99 2.38 M2.49 63.11 C19.63 44.26, 39.08 21.21, 55.63 1.98 M2.49 63.11 C17.01 46.73, 31.61 30.35, 55.63 1.98 M2.88 68.76 C22.9 46.33, 43.08 21.26, 60.62 2.34 M2.88 68.76 C23.19 45.39, 41.88 24.57, 60.62 2.34 M2.62 75.16 C23.83 54.32, 39.89 29.17, 66.26 1.95 M2.62 75.16 C18.47 56.13, 34.46 38.2, 66.26 1.95 M2.36 81.55 C29.87 50.88, 54.51 22.49, 71.25 2.31 M2.36 81.55 C26.5 54.38, 49.03 26.57, 71.25 2.31 M2.76 87.2 C25.76 61.24, 52.69 29.56, 76.89 1.91 M2.76 87.2 C22.68 64.01, 42.85 40.22, 76.89 1.91 M2.49 93.59 C30.49 61.54, 57.87 26.06, 81.88 2.27 M2.49 93.59 C31.33 60.52, 59.32 27.03, 81.88 2.27 M2.89 99.24 C28.16 70.88, 49.29 44.38, 87.52 1.88 M2.89 99.24 C22.19 77.54, 40.48 55.68, 87.52 1.88 M2.63 105.64 C27.42 78.52, 50.89 50.01, 92.51 2.24 M2.63 105.64 C38.6 64.43, 74.48 23.22, 92.51 2.24 M2.37 112.03 C35.69 71.87, 67.49 34.66, 98.15 1.85 M2.37 112.03 C29.87 80.37, 57.31 48.8, 98.15 1.85 M2.76 117.68 C35.35 78.95, 70.62 41.89, 103.14 2.21 M2.76 117.68 C24.16 94.43, 44.43 69.26, 103.14 2.21 M3.16 123.32 C27.31 95.67, 53.64 64.97, 108.78 1.81 M3.16 123.32 C40.3 79.27, 78.36 37.25, 108.78 1.81 M4.86 127.45 C35.22 90.31, 66.42 52.47, 113.77 2.17 M4.86 127.45 C27.89 100.07, 53.15 74.47, 113.77 2.17 M5.26 133.1 C41.54 89.35, 82.58 48.1, 119.41 1.78 M5.26 133.1 C50.78 80.9, 96.57 28.36, 119.41 1.78 M7.62 136.47 C50.54 85.68, 96.45 32.28, 124.4 2.14 M7.62 136.47 C50.54 87.26, 95.13 37.29, 124.4 2.14 M10.64 139.1 C44.47 96.28, 83.89 53.02, 130.04 1.74 M10.64 139.1 C49.89 96.71, 86.98 53.36, 130.04 1.74 M14.31 140.97 C55.74 92.08, 97.64 42.48, 135.03 2.1 M14.31 140.97 C49.36 97.94, 86.03 55.71, 135.03 2.1 M17.33 143.59 C62.88 90.12, 107.49 38.88, 140.67 1.71 M17.33 143.59 C52.29 102.09, 87.68 60.93, 140.67 1.71 M21.01 145.46 C48.28 114.13, 76.95 81.48, 145.66 2.07 M21.01 145.46 C64.61 95.84, 107.71 47.87, 145.66 2.07 M25.34 146.58 C73.23 89.86, 125.31 35.24, 150.65 2.43 M25.34 146.58 C51.9 117.94, 78.32 86.29, 150.65 2.43 M32.29 144.67 C78.07 95.21, 118.24 44.56, 156.29 2.03 M32.29 144.67 C74.54 98.13, 114.59 49.94, 156.29 2.03 M37.28 145.03 C85.09 88.58, 133.69 36.74, 161.28 2.39 M37.28 145.03 C69.44 108.12, 100.26 71.2, 161.28 2.39 M42.92 144.64 C90.72 91.41, 136.95 40.49, 166.92 2 M42.92 144.64 C66.95 114.58, 93.7 85.42, 166.92 2 M47.91 145 C75.02 114.35, 102.25 80.22, 171.91 2.36 M47.91 145 C87.4 99.39, 126.35 54.03, 171.91 2.36 M52.9 145.36 C79.04 113.6, 107.32 79.81, 177.55 1.96 M52.9 145.36 C77.61 115.94, 103.48 86, 177.55 1.96 M58.54 144.96 C92.12 105.3, 128.8 63.9, 182.54 2.32 M58.54 144.96 C106.61 90.51, 152.9 36.35, 182.54 2.32 M63.53 145.32 C107.47 99.27, 149.03 48.65, 188.18 1.93 M63.53 145.32 C96.13 109.61, 126.87 72.99, 188.18 1.93 M69.17 144.93 C102.47 104.11, 137.86 61.81, 193.17 2.29 M69.17 144.93 C110.04 98.38, 152.23 51.84, 193.17 2.29 M74.16 145.29 C104.78 108.19, 138.63 71.58, 198.81 1.9 M74.16 145.29 C99.31 117.03, 123.84 87.71, 198.81 1.9 M79.8 144.9 C130.71 87.32, 178.54 30.53, 203.8 2.26 M79.8 144.9 C124.29 94.42, 167.51 43.91, 203.8 2.26 M84.79 145.26 C111.41 111.48, 143.37 80.45, 209.44 1.86 M84.79 145.26 C130.36 93.05, 176.97 39.33, 209.44 1.86 M90.43 144.86 C128.08 97.62, 168.49 56.08, 214.43 2.22 M90.43 144.86 C130.35 96.04, 171.08 48.72, 214.43 2.22 M95.42 145.22 C146.19 90.39, 192.4 31.56, 220.07 1.83 M95.42 145.22 C120.72 114.85, 146.9 84.4, 220.07 1.83 M101.06 144.83 C127.22 111.52, 152.8 83.04, 225.06 2.19 M101.06 144.83 C132.86 108.13, 163.34 71.68, 225.06 2.19 M106.05 145.19 C154.17 92.56, 198.8 39.31, 230.7 1.79 M106.05 145.19 C136.53 110.59, 166.08 76.75, 230.7 1.79 M111.69 144.79 C138.65 117.15, 162.06 85.81, 235.69 2.15 M111.69 144.79 C137.61 113.65, 164.22 81.98, 235.69 2.15 M116.68 145.15 C157.06 99.25, 194.58 56.02, 241.33 1.76 M116.68 145.15 C155.1 99.61, 194.87 53.74, 241.33 1.76 M122.32 144.76 C155.38 104.12, 188.9 66.56, 246.32 2.12 M122.32 144.76 C171.19 89.94, 218.89 34.94, 246.32 2.12 M127.31 145.12 C160.63 107.75, 195.41 68.39, 251.96 1.72 M127.31 145.12 C171.79 94.11, 216.13 43.25, 251.96 1.72 M132.95 144.72 C167.14 104.52, 206.3 64.21, 256.95 2.08 M132.95 144.72 C164.99 105.52, 198.48 68.92, 256.95 2.08 M137.94 145.08 C183.71 92.31, 226.45 45.7, 262.59 1.69 M137.94 145.08 C163.89 115.91, 190.22 85.14, 262.59 1.69 M143.58 144.69 C174.92 109.48, 206.89 70.46, 267.58 2.05 M143.58 144.69 C170.4 113.21, 199.74 82.17, 267.58 2.05 M148.57 145.05 C178.08 111.76, 203.33 81.73, 272.56 2.41 M148.57 145.05 C173.64 115.53, 198.59 86.39, 272.56 2.41 M154.21 144.65 C187.55 108.07, 219.55 68.66, 278.21 2.01 M154.21 144.65 C200.06 91.97, 243.47 39.89, 278.21 2.01 M159.2 145.01 C186.66 112.8, 212.53 85.21, 283.19 2.37 M159.2 145.01 C207.12 89.92, 255.48 37.14, 283.19 2.37 M164.19 145.37 C202.12 104.92, 237.2 59.79, 288.84 1.98 M164.19 145.37 C194.82 106.77, 226.84 70.45, 288.84 1.98 M169.83 144.98 C212.12 93.05, 258.35 43.46, 293.82 2.34 M169.83 144.98 C201.44 106.46, 235.81 67.61, 293.82 2.34 M174.82 145.34 C207.54 111.65, 235.58 74.76, 299.47 1.94 M174.82 145.34 C199.92 118.44, 225.68 88.79, 299.47 1.94 M180.46 144.94 C208.5 116.42, 230.68 85.13, 304.45 2.3 M180.46 144.94 C218.97 100.78, 259.51 55.75, 304.45 2.3 M185.45 145.31 C221.24 102.72, 256.86 59.74, 310.1 1.91 M185.45 145.31 C232.8 92.21, 280.33 37.72, 310.1 1.91 M191.09 144.91 C238.27 88.19, 288.2 35.33, 315.08 2.27 M191.09 144.91 C220.59 109.55, 252.22 74.41, 315.08 2.27 M196.08 145.27 C239.76 94.85, 284.75 46.35, 320.73 1.88 M196.08 145.27 C230.49 104.94, 265.25 68.33, 320.73 1.88 M201.72 144.88 C234.66 108.79, 263.22 71.79, 325.71 2.24 M201.72 144.88 C237.32 101.42, 273.7 59.07, 325.71 2.24 M206.71 145.24 C253.21 90.64, 300.99 37.76, 331.36 1.84 M206.71 145.24 C240.65 108.22, 273.71 69.33, 331.36 1.84 M212.35 144.84 C242.19 114.5, 267.67 79.17, 336.34 2.2 M212.35 144.84 C236.6 115.07, 262.16 86.57, 336.34 2.2 M217.34 145.2 C251.25 105.29, 286.42 64.08, 341.99 1.81 M217.34 145.2 C249.04 108.05, 278.75 71.6, 341.99 1.81 M222.98 144.81 C254.78 109.71, 284.95 73.51, 346.97 2.17 M222.98 144.81 C251.44 112.17, 277.38 81.44, 346.97 2.17 M227.97 145.17 C258.67 109.25, 290.39 71.64, 352.62 1.77 M227.97 145.17 C253.46 115.85, 279.91 85.09, 352.62 1.77 M233.61 144.77 C279.92 90.22, 328.36 36.09, 357.6 2.13 M233.61 144.77 C263.54 109.84, 296.58 72.44, 357.6 2.13 M238.6 145.13 C284.33 94.02, 329.86 38.18, 363.25 1.74 M238.6 145.13 C270.6 110.97, 300.1 77.3, 363.25 1.74 M244.24 144.74 C285.03 98.47, 325.99 49.52, 368.23 2.1 M244.24 144.74 C288.81 94.28, 333.65 43.13, 368.23 2.1 M249.23 145.1 C274.07 113.24, 304.32 83.42, 373.22 2.46 M249.23 145.1 C288.32 102.57, 326.71 58.15, 373.22 2.46 M254.87 144.7 C297.9 94.29, 343.78 43.11, 377.55 3.57 M254.87 144.7 C286.66 106.11, 320.39 66.72, 377.55 3.57 M259.86 145.06 C295.8 103.74, 331.06 61.72, 381.23 5.44 M259.86 145.06 C298.82 101.67, 336.82 56.01, 381.23 5.44 M265.5 144.67 C313.19 90.52, 361.44 33.85, 384.9 7.31 M265.5 144.67 C292.92 114.87, 319.46 83.51, 384.9 7.31 M270.49 145.03 C293.76 118.67, 317.19 90.91, 387.92 9.94 M270.49 145.03 C298.6 112.33, 327.42 78.58, 387.92 9.94 M276.13 144.63 C309.18 107.62, 339.56 70.71, 390.28 13.32 M276.13 144.63 C314.84 98.86, 353.06 54.55, 390.28 13.32 M281.12 144.99 C305.94 116.7, 328.37 88.76, 391.99 17.45 M281.12 144.99 C321.03 97.29, 362.22 51.33, 391.99 17.45 M286.1 145.35 C324.81 103.13, 365.35 57.02, 393.04 22.34 M286.1 145.35 C313.97 112.26, 343.79 77.31, 393.04 22.34 M291.75 144.96 C324.16 107.97, 358.78 71.44, 395.4 25.72 M291.75 144.96 C322.28 110.33, 352.3 74.13, 395.4 25.72 M296.73 145.32 C322.53 113.82, 350.61 86.17, 395.14 32.11 M296.73 145.32 C330.9 104.68, 367.32 64.68, 395.14 32.11 M302.38 144.93 C320.38 122.95, 340.8 101.95, 395.54 37.76 M302.38 144.93 C328.33 112.21, 356.43 82.25, 395.54 37.76 M307.36 145.29 C337.92 110.64, 366.55 76.31, 395.28 44.15 M307.36 145.29 C325.37 123.43, 344.42 100.44, 395.28 44.15 M313.01 144.89 C335.45 120.95, 355.71 93.18, 395.01 50.55 M313.01 144.89 C342.22 110.33, 372.53 76.59, 395.01 50.55 M317.99 145.25 C335.46 125.76, 350.14 107.98, 395.41 56.2 M317.99 145.25 C334.45 126.54, 349.07 108.69, 395.41 56.2 M323.64 144.86 C350.88 112.04, 380.82 81.41, 395.15 62.59 M323.64 144.86 C349.73 114.44, 376.12 84.65, 395.15 62.59 M328.62 145.22 C342.07 126.15, 358.11 110, 395.54 68.24 M328.62 145.22 C352.38 118.21, 373.64 91.69, 395.54 68.24 M334.27 144.82 C356.58 116.53, 380.06 91.2, 395.28 74.63 M334.27 144.82 C352.85 123.85, 373.24 101.61, 395.28 74.63 M339.25 145.18 C350.58 130.51, 366.65 115.79, 395.67 80.28 M339.25 145.18 C360.84 120.94, 381.57 97.17, 395.67 80.28 M344.9 144.79 C359.95 129.93, 374.97 110.51, 395.41 86.68 M344.9 144.79 C359.66 128.95, 373.84 112.99, 395.41 86.68 M349.88 145.15 C365.74 124.35, 384.39 105.92, 395.81 92.32 M349.88 145.15 C365.01 128.41, 378.61 111.44, 395.81 92.32 M355.53 144.75 C366.83 128.33, 381.85 115.58, 395.55 98.72 M355.53 144.75 C366.51 134.09, 376.57 121.06, 395.55 98.72 M360.51 145.11 C371.57 133.46, 379.69 124.34, 395.94 104.36 M360.51 145.11 C371.82 131.23, 384.33 117.41, 395.94 104.36 M364.19 146.98 C372.36 139.23, 375.92 131.75, 395.68 110.76 M364.19 146.98 C375.25 134.47, 383.71 124.14, 395.68 110.76 M370.49 145.83 C377.43 139.68, 383.18 129.21, 396.73 115.65 M370.49 145.83 C377.33 137.24, 382.58 130.01, 396.73 115.65 M377.44 143.93 C380.98 139.22, 385.26 134.38, 391.88 127.33 M377.44 143.93 C381.01 139.93, 385.77 134.2, 391.88 127.33" stroke="#ffec99" stroke-width="0.5" fill="none"></path><path d="M32 0 M32 0 C158.41 -0.65, 283.84 1.37, 362 0 M32 0 C99.31 -2.94, 165.01 -1.66, 362 0 M362 0 C382.37 -1.19, 392.06 11.27, 394 32 M362 0 C383.53 0.55, 395.84 12.5, 394 32 M394 32 C396.17 49.29, 394.95 72.1, 394 113 M394 32 C394.74 57.51, 393.79 80.56, 394 113 M394 113 C393.49 135.83, 381.87 143.9, 362 145 M394 113 C391.98 135.04, 383.6 143.19, 362 145 M362 145 C291.31 144.27, 221.15 142.78, 32 145 M362 145 C249.93 143.31, 138.97 142.96, 32 145 M32 145 C8.71 146.69, -1.86 135.95, 0 113 M32 145 C10.21 143.8, 1.65 132.18, 0 113 M0 113 C0.55 94.72, -1.35 75.26, 0 32 M0 113 C-0.88 90.36, -1.5 66.27, 0 32 M0 32 C1.9 12.2, 9.12 -1.48, 32 0 M0 32 C0.22 11.69, 10.1 1.96, 32 0" stroke="#000000" stroke-width="1" fill="none"></path></g><g transform="translate(288.875 73.3828125) rotate(0 140.625 67.19999999999999)"><text x="0" y="0" font-family="Cascadia, Segoe UI Emoji" font-size="16px" fill="#000000" text-anchor="start" style="white-space: pre;" direction="ltr" dominant-baseline="text-before-edge">directories: []</text><text x="0" y="19.2" font-family="Cascadia, Segoe UI Emoji" font-size="16px" fill="#000000" text-anchor="start" style="white-space: pre;" direction="ltr" dominant-baseline="text-before-edge">files:</text><text x="0" y="38.4" font-family="Cascadia, Segoe UI Emoji" font-size="16px" fill="#000000" text-anchor="start" style="white-space: pre;" direction="ltr" dominant-baseline="text-before-edge"> - name: .keep</text><text x="0" y="57.599999999999994" font-family="Cascadia, Segoe UI Emoji" font-size="16px" fill="#000000" text-anchor="start" style="white-space: pre;" direction="ltr" dominant-baseline="text-before-edge">   digest: &lt;empty-blob-digest&gt;</text><text x="0" y="76.8" font-family="Cascadia, Segoe UI Emoji" font-size="16px" fill="#000000" text-anchor="start" style="white-space: pre;" direction="ltr" dominant-baseline="text-before-edge">   size: 0</text><text x="0" y="96" font-family="Cascadia, Segoe UI Emoji" font-size="16px" fill="#000000" text-anchor="start" style="white-space: pre;" direction="ltr" dominant-baseline="text-before-edge">   executable: false</text><text x="0" y="115.19999999999999" font-family="Cascadia, Segoe UI Emoji" font-size="16px" fill="#000000" text-anchor="start" style="white-space: pre;" direction="ltr" dominant-baseline="text-before-edge">symlinks: []</text></g><g stroke-linecap="round" transform="translate(279.59193843887 271.159696266393) rotate(0 198.99999999999994 130)"><path d="M7.86 8.16 C7.86 8.16, 7.86 8.16, 7.86 8.16 M7.86 8.16 C7.86 8.16, 7.86 8.16, 7.86 8.16 M3.66 19.09 C7.06 13.81, 9.24 9.34, 18.1 2.48 M3.66 19.09 C8.44 11.73, 13.76 5.27, 18.1 2.48 M2.75 26.24 C10 16.18, 18.61 6.13, 24.4 1.33 M2.75 26.24 C9.44 19.31, 14.57 12.4, 24.4 1.33 M2.48 32.64 C10.34 21.03, 17.74 12.3, 30.7 0.18 M2.48 32.64 C13.49 21.44, 21.83 9.48, 30.7 0.18 M2.88 38.28 C12.91 25, 26.86 13.76, 34.37 2.05 M2.88 38.28 C12.64 28.15, 21.63 16.63, 34.37 2.05 M2.62 44.68 C14.17 33.27, 22.89 18.23, 39.36 2.41 M2.62 44.68 C12.44 34.48, 21.24 23.55, 39.36 2.41 M2.36 51.07 C18.27 36.19, 31.27 19.8, 45 2.02 M2.36 51.07 C15.34 37.29, 27.12 23.41, 45 2.02 M2.75 56.72 C18.22 37.56, 35.93 17.94, 49.99 2.38 M2.75 56.72 C20.57 34.56, 37.8 14.24, 49.99 2.38 M2.49 63.11 C18.51 41.78, 36.66 23.69, 55.63 1.98 M2.49 63.11 C16.06 46.84, 30.13 32.58, 55.63 1.98 M2.23 69.51 C14.08 54.4, 27.81 42.3, 60.62 2.34 M2.23 69.51 C14.8 54.54, 28.11 38.47, 60.62 2.34 M2.62 75.16 C23.22 53.14, 45.11 28.68, 66.26 1.95 M2.62 75.16 C18.68 55.49, 35.76 36.87, 66.26 1.95 M2.36 81.55 C29.49 51.06, 52.67 20.07, 71.25 2.31 M2.36 81.55 C23.35 59.17, 43.86 35.46, 71.25 2.31 M2.76 87.2 C29.08 59.14, 54.26 30.38, 76.89 1.91 M2.76 87.2 C25.2 61.93, 47.39 35.45, 76.89 1.91 M2.49 93.59 C22.97 73.16, 41.24 50.49, 81.88 2.27 M2.49 93.59 C22.85 70.13, 41.2 48.51, 81.88 2.27 M2.23 99.99 C26.73 70.85, 53 42.34, 87.52 1.88 M2.23 99.99 C26.11 70.65, 52.18 43.37, 87.52 1.88 M2.63 105.64 C29.25 73.43, 57.28 44.11, 92.51 2.24 M2.63 105.64 C22.21 84.02, 40.09 61.9, 92.51 2.24 M2.37 112.03 C24.78 84.92, 46.32 60.61, 98.15 1.85 M2.37 112.03 C40.71 68.73, 77.43 25.35, 98.15 1.85 M2.1 118.43 C32.45 81.76, 64.34 45.79, 103.14 2.21 M2.1 118.43 C26.04 90.13, 50.16 63.23, 103.14 2.21 M2.5 124.07 C34.35 88.85, 66.58 53.31, 108.78 1.81 M2.5 124.07 C35.8 86.3, 67.38 48.42, 108.78 1.81 M2.24 130.47 C44.13 79.64, 85.07 32.68, 113.77 2.17 M2.24 130.47 C28.26 100.65, 54.41 68.41, 113.77 2.17 M2.63 136.11 C39.83 96.08, 73.86 52.5, 119.41 1.78 M2.63 136.11 C27.92 105.97, 55.2 76.2, 119.41 1.78 M2.37 142.51 C38.64 103.62, 72.54 62.27, 124.4 2.14 M2.37 142.51 C38.27 104.7, 71.42 64.68, 124.4 2.14 M2.11 148.91 C31.62 115.14, 60.21 82.46, 130.04 1.74 M2.11 148.91 C30.64 115.22, 60.37 82.49, 130.04 1.74 M2.5 154.55 C45.43 105.72, 87.93 57.79, 135.03 2.1 M2.5 154.55 C39.77 111.59, 78.21 68.92, 135.03 2.1 M2.24 160.95 C40.01 120.72, 75.93 77.72, 140.67 1.71 M2.24 160.95 C44.66 112.93, 87.03 64.56, 140.67 1.71 M1.98 167.35 C39.14 124.53, 74.75 81.57, 145.66 2.07 M1.98 167.35 C47.85 117.91, 91.41 66.21, 145.66 2.07 M2.38 172.99 C58.38 106.95, 115.31 43.43, 150.65 2.43 M2.38 172.99 C53.11 115.34, 104.81 56.32, 150.65 2.43 M2.11 179.39 C64.27 108.42, 124.58 39.52, 156.29 2.03 M2.11 179.39 C42.26 131.15, 83.61 83.43, 156.29 2.03 M2.51 185.03 C62.42 116.85, 122.68 43.77, 161.28 2.39 M2.51 185.03 C56.66 122.43, 112.32 58.31, 161.28 2.39 M2.25 191.43 C51.58 133.03, 102.03 75.72, 166.92 2 M2.25 191.43 C38.3 149.45, 75.45 107.32, 166.92 2 M1.99 197.83 C42.68 152.88, 80.66 108.12, 171.91 2.36 M1.99 197.83 C66.15 123.85, 132.83 47.33, 171.91 2.36 M2.38 203.47 C55.91 143.98, 107.7 83.76, 177.55 1.96 M2.38 203.47 C56.81 142.73, 110.46 81.58, 177.55 1.96 M2.12 209.87 C66.55 137, 131.82 62.14, 182.54 2.32 M2.12 209.87 C50.61 157.03, 98.73 101.44, 182.54 2.32 M1.86 216.27 C63.05 142.96, 126.25 69.69, 188.18 1.93 M1.86 216.27 C65.44 140.95, 131.03 66.87, 188.18 1.93 M2.25 221.91 C59.05 161.57, 111.38 97.22, 193.17 2.29 M2.25 221.91 C52.49 164.23, 101.5 106.36, 193.17 2.29 M1.33 229.06 C64.26 156.57, 124.34 84.79, 198.81 1.9 M1.33 229.06 C60.97 162.1, 120.98 94.62, 198.81 1.9 M1.73 234.71 C54.24 174.7, 106.54 116.97, 203.8 2.26 M1.73 234.71 C76.5 149.79, 152.59 63.83, 203.8 2.26 M2.78 239.59 C49.77 186.82, 94.95 134.94, 209.44 1.86 M2.78 239.59 C83.35 146.44, 163.63 53.44, 209.44 1.86 M4.49 243.73 C48.55 190.47, 93.86 139.53, 214.43 2.22 M4.49 243.73 C63.53 174.61, 122.23 106.2, 214.43 2.22 M6.19 247.86 C77.48 165.73, 149.04 81.52, 220.07 1.83 M6.19 247.86 C85.41 157.55, 164.08 66.86, 220.07 1.83 M8.56 251.24 C90.22 155.68, 175.16 56.51, 225.06 2.19 M8.56 251.24 C89.12 157.29, 172.43 62.13, 225.06 2.19 M10.92 254.62 C69.41 191.54, 124.13 126, 230.7 1.79 M10.92 254.62 C69.41 187.27, 127.03 120.42, 230.7 1.79 M13.94 257.24 C82.45 176.73, 153.61 97.39, 235.69 2.15 M13.94 257.24 C93.45 166.82, 173.91 75.69, 235.69 2.15 M18.27 258.36 C76.98 194.1, 131.53 129.14, 241.33 1.76 M18.27 258.36 C66.67 201.61, 115.46 145.37, 241.33 1.76 M22.6 259.47 C75.95 201, 128.47 140.06, 246.32 2.12 M22.6 259.47 C70.35 207.82, 116.17 155.22, 246.32 2.12 M26.27 261.34 C95.93 180.59, 169.95 95.39, 251.96 1.72 M26.27 261.34 C89.37 190.53, 152.1 118.22, 251.96 1.72 M32.57 260.19 C96.06 189.84, 155.98 120.97, 256.95 2.08 M32.57 260.19 C78.18 205.29, 124.7 151.48, 256.95 2.08 M37.56 260.55 C117 171.22, 192.42 83.99, 262.59 1.69 M37.56 260.55 C121.96 163.6, 206.2 67.19, 262.59 1.69 M43.2 260.16 C105.28 189.09, 169.45 117.92, 267.58 2.05 M43.2 260.16 C123.84 168.01, 203.45 76.43, 267.58 2.05 M48.19 260.52 C117.81 178.99, 186.9 100.6, 272.56 2.41 M48.19 260.52 C125.53 171.84, 202.4 82.45, 272.56 2.41 M53.83 260.12 C138.08 162.28, 222.76 67.81, 278.21 2.01 M53.83 260.12 C128.55 171.85, 204.35 84.41, 278.21 2.01 M58.82 260.48 C127.06 184.42, 193 106.58, 283.19 2.37 M58.82 260.48 C135.91 173.81, 211.1 87.23, 283.19 2.37 M64.46 260.09 C109.71 206.88, 156.75 154.77, 288.84 1.98 M64.46 260.09 C142.84 169.53, 220.7 80.3, 288.84 1.98 M69.45 260.45 C138.09 183.73, 208 105.35, 293.82 2.34 M69.45 260.45 C156.6 162.77, 241.99 64.65, 293.82 2.34 M75.09 260.06 C143.01 182.6, 211.21 103.49, 299.47 1.94 M75.09 260.06 C136 192, 195.87 123.37, 299.47 1.94 M80.08 260.42 C126.17 206.79, 172.95 151.57, 304.45 2.3 M80.08 260.42 C129.25 204.69, 179.83 146.37, 304.45 2.3 M85.72 260.02 C157.76 178.28, 226.22 97.47, 310.1 1.91 M85.72 260.02 C149.05 184.68, 213.67 111.24, 310.1 1.91 M90.71 260.38 C181.48 157.9, 269.25 55.91, 315.08 2.27 M90.71 260.38 C157.59 183.34, 224.55 106.5, 315.08 2.27 M95.7 260.74 C174.5 168.64, 255.03 76.7, 320.73 1.88 M95.7 260.74 C164.52 183.36, 232.23 105.12, 320.73 1.88 M101.34 260.35 C181.6 167.21, 261.15 73.9, 325.71 2.24 M101.34 260.35 C177.77 172.29, 255.39 82.95, 325.71 2.24 M106.33 260.71 C168.93 189.98, 230.06 115.81, 331.36 1.84 M106.33 260.71 C170.53 184.03, 237.17 107.92, 331.36 1.84 M111.97 260.31 C176.35 190.63, 236.85 119.43, 336.34 2.2 M111.97 260.31 C157.57 208.21, 204.38 154.93, 336.34 2.2 M116.96 260.67 C164.3 205.68, 212.63 148.72, 341.99 1.81 M116.96 260.67 C197.94 169.46, 278.58 77.5, 341.99 1.81 M122.6 260.28 C175.27 200.79, 229.84 138.31, 346.97 2.17 M122.6 260.28 C172.5 202.83, 220.76 146.35, 346.97 2.17 M127.59 260.64 C215.15 158.17, 304.42 54.77, 352.62 1.77 M127.59 260.64 C188.96 189.82, 250.22 118.28, 352.62 1.77 M133.23 260.24 C183.32 201.93, 235.94 141.72, 357.6 2.13 M133.23 260.24 C184.28 203.09, 233.15 145.34, 357.6 2.13 M138.22 260.6 C220.44 165.6, 301.95 72.93, 363.25 1.74 M138.22 260.6 C215.16 172.58, 291.69 83.91, 363.25 1.74 M143.86 260.21 C216.13 172.96, 292.05 87.04, 368.23 2.1 M143.86 260.21 C223.54 169.38, 302.36 80.03, 368.23 2.1 M148.85 260.57 C228.87 169.81, 309.22 79.04, 374.53 0.95 M148.85 260.57 C225.85 169.3, 304.04 78.63, 374.53 0.95 M154.49 260.17 C230.89 172.65, 306.45 86.57, 378.21 2.82 M154.49 260.17 C210.94 195.8, 265.6 130.92, 378.21 2.82 M159.48 260.53 C223.94 184.22, 290.75 110.57, 382.54 3.93 M159.48 260.53 C244.05 163.85, 329.27 67.22, 382.54 3.93 M165.12 260.14 C236.95 176.83, 309.56 92.2, 386.87 5.05 M165.12 260.14 C221.23 195.95, 279.16 130.62, 386.87 5.05 M170.11 260.5 C221.21 201.49, 273.24 142.28, 389.23 8.43 M170.11 260.5 C218.37 205.87, 266.44 150.41, 389.23 8.43 M175.75 260.11 C241.58 187.82, 304.45 113.61, 392.25 11.05 M175.75 260.11 C222.69 207.98, 267.39 155.95, 392.25 11.05 M180.74 260.47 C245.33 188.58, 307.54 115.78, 395.27 13.68 M180.74 260.47 C261.6 168.2, 340.34 76.88, 395.27 13.68 M186.38 260.07 C251.57 186.65, 319.28 107.6, 396.32 18.56 M186.38 260.07 C236.65 200.09, 289.45 140.81, 396.32 18.56 M191.37 260.43 C255.8 183.29, 323.42 107.08, 397.37 23.45 M191.37 260.43 C233.86 209.7, 277.09 160.88, 397.37 23.45 M197.01 260.04 C273.9 173.76, 350.14 83.39, 397.77 29.09 M197.01 260.04 C238.49 210.28, 280.91 161.3, 397.77 29.09 M202 260.4 C249.95 204.58, 301.21 145.35, 399.47 33.23 M202 260.4 C246.27 207.11, 292.1 154.9, 399.47 33.23 M207.64 260 C282.04 175.37, 353.03 93.88, 399.21 39.63 M207.64 260 C252.23 206.89, 298.22 154.54, 399.21 39.63 M212.63 260.36 C270.79 190.87, 332.59 125.04, 399.61 45.27 M212.63 260.36 C255.76 212.2, 297.66 164.88, 399.61 45.27 M217.62 260.72 C270.87 200.01, 324.39 137.32, 399.34 51.67 M217.62 260.72 C286.2 182.97, 352.23 105.9, 399.34 51.67 M223.26 260.33 C266.88 209.47, 311.98 157.05, 399.74 57.31 M223.26 260.33 C270.48 203.33, 319.36 147.73, 399.74 57.31 M228.25 260.69 C264.48 217.85, 298.81 176.68, 399.48 63.71 M228.25 260.69 C287.06 192.75, 345.09 124.31, 399.48 63.71 M233.89 260.29 C283.82 202.81, 333.35 147.36, 399.22 70.11 M233.89 260.29 C296.32 189.36, 357.95 117.97, 399.22 70.11 M238.88 260.65 C288.24 201.51, 340.4 144.75, 399.61 75.75 M238.88 260.65 C302.98 187.65, 365.83 115.51, 399.61 75.75 M244.52 260.26 C301.41 192.57, 362.82 123.97, 399.35 82.15 M244.52 260.26 C276.87 221.94, 309.71 183.55, 399.35 82.15 M249.51 260.62 C294.86 210.74, 338.19 159.76, 399.74 87.79 M249.51 260.62 C288.68 213.68, 329.48 168.33, 399.74 87.79 M255.15 260.22 C306.36 203.12, 357.73 144.26, 399.48 94.19 M255.15 260.22 C310.1 197.2, 364.53 133.07, 399.48 94.19 M260.14 260.58 C306.6 208.36, 353.31 154.47, 399.22 100.59 M260.14 260.58 C314.84 198.11, 370.53 134.35, 399.22 100.59 M265.78 260.19 C310.07 209.18, 353.85 155.07, 399.62 106.23 M265.78 260.19 C313.52 203.42, 361.67 148.41, 399.62 106.23 M270.77 260.55 C312.94 210.71, 350.92 165.03, 399.35 112.63 M270.77 260.55 C313.74 212.09, 354.22 165.25, 399.35 112.63 M276.41 260.15 C322.47 205.94, 367.79 155.3, 399.75 118.27 M276.41 260.15 C319.24 210.97, 362.85 162.61, 399.75 118.27 M281.4 260.51 C309.82 228.04, 337.57 195, 399.49 124.67 M281.4 260.51 C315.37 218.59, 351.47 180.05, 399.49 124.67 M287.04 260.12 C329.88 210.1, 376.19 158.03, 399.23 131.06 M287.04 260.12 C314.45 229.24, 339.01 200.91, 399.23 131.06 M292.03 260.48 C332.66 211.87, 372.61 167.01, 399.62 136.71 M292.03 260.48 C317.01 231.17, 342.37 202.7, 399.62 136.71 M297.67 260.09 C320.79 233.82, 342.65 206.24, 399.36 143.11 M297.67 260.09 C337.01 212.55, 377.78 167.34, 399.36 143.11 M302.66 260.45 C335.5 224.45, 365.99 190.46, 399.75 148.75 M302.66 260.45 C341.03 214.95, 379.75 172.24, 399.75 148.75 M308.3 260.05 C331.34 234.81, 350.27 209.28, 399.49 155.15 M308.3 260.05 C337.96 226.28, 369 190.93, 399.49 155.15 M313.29 260.41 C344.16 226.42, 373.26 191.65, 399.23 161.54 M313.29 260.41 C340.87 229.56, 366.67 199.76, 399.23 161.54 M318.93 260.02 C339.08 235.8, 357.34 215.88, 399.63 167.19 M318.93 260.02 C338.18 238.19, 356.44 217.12, 399.63 167.19 M323.92 260.38 C343.38 240.84, 359.55 216.05, 399.36 173.59 M323.92 260.38 C339.58 242.35, 357.05 223.74, 399.36 173.59 M328.9 260.74 C356.6 230.93, 381.38 201.75, 399.76 179.23 M328.9 260.74 C355.35 229.48, 382.07 199.6, 399.76 179.23 M334.55 260.34 C353.55 235.84, 374.53 215.15, 399.5 185.63 M334.55 260.34 C350.96 240.58, 366.19 222.61, 399.5 185.63 M339.53 260.7 C355.36 243.43, 370.27 221.73, 399.24 192.02 M339.53 260.7 C361.66 234.82, 383.39 210.67, 399.24 192.02 M345.18 260.31 C362.54 238.6, 380.33 220.43, 399.63 197.67 M345.18 260.31 C359.44 243.81, 374.08 228.32, 399.63 197.67 M350.16 260.67 C364.5 243.76, 376.71 230.97, 399.37 204.06 M350.16 260.67 C363.93 245.32, 377.91 229.24, 399.37 204.06 M355.81 260.27 C372.91 242.23, 387.92 223.73, 399.76 209.71 M355.81 260.27 C373.85 240.57, 389.06 220.82, 399.76 209.71 M360.79 260.63 C368.09 252.39, 377.96 242.27, 399.5 216.11 M360.79 260.63 C372.53 247.08, 385.83 232.19, 399.5 216.11 M366.44 260.24 C372.92 252.64, 384.19 241.59, 399.24 222.5 M366.44 260.24 C374.31 251.44, 384.03 240.28, 399.24 222.5 M372.74 259.09 C379.45 251.45, 383.63 244.65, 398.98 228.9 M372.74 259.09 C383.24 247.41, 391.87 236.99, 398.98 228.9 M378.38 258.69 C382.28 255.84, 387.86 247.21, 398.06 236.05 M378.38 258.69 C382.66 254.99, 386.79 248.97, 398.06 236.05 M385.99 256.04 C389.48 251.84, 392.18 249.55, 394.52 246.23 M385.99 256.04 C389.44 252.25, 392.29 247.67, 394.52 246.23" stroke="#ffec99" stroke-width="0.5" fill="none"></path><path d="M32 0 M32 0 C123.14 1.36, 217.94 1.27, 366 0 M32 0 C131.29 -1.79, 231.25 -1.6, 366 0 M366 0 C387.8 0.82, 396.14 9, 398 32 M366 0 C388.4 -1.28, 396.3 11.05, 398 32 M398 32 C396.68 77, 397.3 120.08, 398 228 M398 32 C397.91 99.78, 396.94 166.68, 398 228 M398 228 C399.84 247.36, 385.48 260.38, 366 260 M398 228 C399.48 250.74, 389.16 259.77, 366 260 M366 260 C278.41 260.83, 191.33 259.2, 32 260 M366 260 C254.85 261.48, 142.72 261.51, 32 260 M32 260 C9.06 261.46, -1.27 247.64, 0 228 M32 260 C8.96 260.25, 0.79 249.13, 0 228 M0 228 C-2.62 187.23, -0.98 150.02, 0 32 M0 228 C-1.12 169.92, -1.74 111.79, 0 32 M0 32 C-0.23 11.83, 11.85 0.53, 32 0 M0 32 C1.74 9.13, 11.06 1.81, 32 0" stroke="#000000" stroke-width="1" fill="none"></path></g><g transform="translate(284.59193843887 276.159696266393) rotate(0 182.81249999999994 124.80000000000001)"><text x="0" y="0" font-family="Cascadia, Segoe UI Emoji" font-size="16px" fill="#000000" text-anchor="start" style="white-space: pre;" direction="ltr" dominant-baseline="text-before-edge">directories:</text><text x="0" y="19.2" font-family="Cascadia, Segoe UI Emoji" font-size="16px" fill="#000000" text-anchor="start" style="white-space: pre;" direction="ltr" dominant-baseline="text-before-edge"> - name: keep</text><text x="0" y="38.4" font-family="Cascadia, Segoe UI Emoji" font-size="16px" fill="#000000" text-anchor="start" style="white-space: pre;" direction="ltr" dominant-baseline="text-before-edge">   digest: &lt;directory-with-keep-digest&gt;</text><text x="0" y="57.599999999999994" font-family="Cascadia, Segoe UI Emoji" font-size="16px" fill="#000000" text-anchor="start" style="white-space: pre;" direction="ltr" dominant-baseline="text-before-edge">   size: 1</text><text x="0" y="76.8" font-family="Cascadia, Segoe UI Emoji" font-size="16px" fill="#000000" text-anchor="start" style="white-space: pre;" direction="ltr" dominant-baseline="text-before-edge">   executable: false</text><text x="0" y="96" font-family="Cascadia, Segoe UI Emoji" font-size="16px" fill="#000000" text-anchor="start" style="white-space: pre;" direction="ltr" dominant-baseline="text-before-edge">files:</text><text x="0" y="115.19999999999999" font-family="Cascadia, Segoe UI Emoji" font-size="16px" fill="#000000" text-anchor="start" style="white-space: pre;" direction="ltr" dominant-baseline="text-before-edge"> - name: .keep</text><text x="0" y="134.4" font-family="Cascadia, Segoe UI Emoji" font-size="16px" fill="#000000" text-anchor="start" style="white-space: pre;" direction="ltr" dominant-baseline="text-before-edge">   digest: &lt;empty-blob-digest&gt;</text><text x="0" y="153.6" font-family="Cascadia, Segoe UI Emoji" font-size="16px" fill="#000000" text-anchor="start" style="white-space: pre;" direction="ltr" dominant-baseline="text-before-edge">   size: 0</text><text x="0" y="172.79999999999998" font-family="Cascadia, Segoe UI Emoji" font-size="16px" fill="#000000" text-anchor="start" style="white-space: pre;" direction="ltr" dominant-baseline="text-before-edge">   executable: false</text><text x="0" y="192" font-family="Cascadia, Segoe UI Emoji" font-size="16px" fill="#000000" text-anchor="start" style="white-space: pre;" direction="ltr" dominant-baseline="text-before-edge">symlinks:</text><text x="0" y="211.2" font-family="Cascadia, Segoe UI Emoji" font-size="16px" fill="#000000" text-anchor="start" style="white-space: pre;" direction="ltr" dominant-baseline="text-before-edge"> - name: aa</text><text x="0" y="230.39999999999998" font-family="Cascadia, Segoe UI Emoji" font-size="16px" fill="#000000" text-anchor="start" style="white-space: pre;" direction="ltr" dominant-baseline="text-before-edge">   target: /nix/store/somewhereelse</text></g><g stroke-linecap="round" transform="translate(292.58984375 581.578125) rotate(0 192 36.5)"><path d="M4.86 4.22 C4.86 4.22, 4.86 4.22, 4.86 4.22 M4.86 4.22 C4.86 4.22, 4.86 4.22, 4.86 4.22 M3.28 12.13 C5.02 8.82, 8.25 4.62, 11.81 2.32 M3.28 12.13 C6.19 8.3, 9.57 5.6, 11.81 2.32 M1.71 20.04 C8.34 16.13, 10.93 7.61, 18.77 0.41 M1.71 20.04 C6.51 15.46, 9.85 9.62, 18.77 0.41 M2.11 25.68 C10.79 16.53, 14.3 8.85, 23.76 0.77 M2.11 25.68 C8.12 18.52, 15.95 11.63, 23.76 0.77 M1.84 32.08 C8.84 22.24, 16.07 17.29, 29.4 0.38 M1.84 32.08 C11.36 20.47, 23.16 9.07, 29.4 0.38 M2.24 37.72 C9.27 29.77, 15.4 22.85, 34.39 0.74 M2.24 37.72 C15.42 23.1, 27.12 8.74, 34.39 0.74 M2.63 43.36 C8.76 33.58, 17 25.79, 40.03 0.35 M2.63 43.36 C13.14 31.06, 23.17 18.26, 40.03 0.35 M2.37 49.76 C16.36 34.07, 29.4 16.32, 45.02 0.71 M2.37 49.76 C17.93 32.43, 33.93 13.74, 45.02 0.71 M2.77 55.41 C19.05 35.42, 38.7 10.68, 50.66 0.31 M2.77 55.41 C19.96 34.91, 39.43 13.51, 50.66 0.31 M1.19 63.31 C17.21 49, 29.42 31.12, 55.65 0.67 M1.19 63.31 C15.9 46.95, 29.88 30.05, 55.65 0.67 M4.21 65.94 C21.41 44.81, 41.02 26.02, 61.29 0.28 M4.21 65.94 C24.28 42.91, 45.96 20.08, 61.29 0.28 M6.57 69.32 C23.78 51.2, 36.27 33.53, 66.28 0.64 M6.57 69.32 C19.35 53.63, 31.93 38.99, 66.28 0.64 M9.59 71.94 C25.17 56.48, 40.49 38.06, 71.92 0.24 M9.59 71.94 C23.84 58.2, 36.53 43.78, 71.92 0.24 M13.92 73.05 C31.98 52.05, 54.85 25.68, 76.91 0.6 M13.92 73.05 C30.95 53.92, 48.62 33.36, 76.91 0.6 M19.57 72.66 C38.35 51.77, 53.43 34.49, 82.55 0.21 M19.57 72.66 C32.02 56.9, 44.97 41.55, 82.55 0.21 M24.55 73.02 C48.11 46.73, 66.96 24.34, 87.54 0.57 M24.55 73.02 C47.62 46.37, 71.59 19.54, 87.54 0.57 M30.2 72.63 C46.25 51.67, 67.22 31.55, 93.18 0.17 M30.2 72.63 C53.38 46.94, 75.41 21.61, 93.18 0.17 M35.18 72.99 C55.38 48.59, 74.75 27.94, 98.17 0.53 M35.18 72.99 C57.1 47.59, 77.7 22.46, 98.17 0.53 M40.83 72.59 C64.45 43.72, 89.12 19.76, 103.81 0.14 M40.83 72.59 C61.26 47.84, 82.21 23.37, 103.81 0.14 M45.81 72.95 C66.24 52.79, 83.08 30.43, 108.8 0.5 M45.81 72.95 C67.8 48.81, 88.58 24.77, 108.8 0.5 M51.46 72.56 C64.09 57.9, 78.25 44.63, 113.78 0.86 M51.46 72.56 C72.83 47.42, 94.74 22.72, 113.78 0.86 M56.44 72.92 C74.65 52.58, 96.04 31.05, 119.43 0.46 M56.44 72.92 C81.73 45.16, 105.23 18.3, 119.43 0.46 M62.09 72.52 C80.07 51.93, 98.45 29.82, 124.41 0.82 M62.09 72.52 C79.04 54.05, 95.96 34.96, 124.41 0.82 M67.07 72.88 C80.12 59.08, 92.94 42.21, 130.06 0.43 M67.07 72.88 C80.66 58.14, 95.45 40.91, 130.06 0.43 M72.06 73.24 C93.79 49.66, 111.38 26.32, 135.04 0.79 M72.06 73.24 C89.58 51.72, 107.82 32.09, 135.04 0.79 M77.7 72.85 C104.72 44.35, 127.17 17, 140.69 0.4 M77.7 72.85 C96.13 51.38, 114.98 29.95, 140.69 0.4 M82.69 73.21 C104.71 47.57, 127.59 22.31, 145.67 0.76 M82.69 73.21 C101.71 51.47, 120.77 29.01, 145.67 0.76 M88.33 72.81 C110.76 47.24, 131.64 20.5, 151.32 0.36 M88.33 72.81 C109 48.14, 130.72 23.09, 151.32 0.36 M93.32 73.17 C111.15 55.01, 126.29 31.78, 156.3 0.72 M93.32 73.17 C110.49 51.39, 129.9 29.91, 156.3 0.72 M98.96 72.78 C118.26 54.28, 133.1 34.79, 161.95 0.33 M98.96 72.78 C111.06 59.03, 124.81 44.07, 161.95 0.33 M103.95 73.14 C115.72 58.92, 129.64 40.85, 166.93 0.69 M103.95 73.14 C126.22 47.2, 149.58 21.56, 166.93 0.69 M109.59 72.74 C123.31 56.85, 140.06 38.01, 172.58 0.29 M109.59 72.74 C124.38 56.56, 137.2 40.37, 172.58 0.29 M114.58 73.1 C138.07 45.66, 163.14 15.75, 177.56 0.65 M114.58 73.1 C131.86 52.94, 147.99 32.77, 177.56 0.65 M120.22 72.71 C133.34 57.46, 150.05 38.7, 183.21 0.26 M120.22 72.71 C135.3 57.12, 148.59 39.51, 183.21 0.26 M125.21 73.07 C147.35 45.64, 169.73 21.54, 188.19 0.62 M125.21 73.07 C146.83 48.56, 167.28 24.07, 188.19 0.62 M130.85 72.68 C149.9 47.27, 173.04 22.78, 193.84 0.22 M130.85 72.68 C153.31 46.45, 175.71 22.68, 193.84 0.22 M135.84 73.04 C157.75 47.97, 181.46 23.22, 198.82 0.58 M135.84 73.04 C157.01 47.37, 178.52 21.52, 198.82 0.58 M141.49 72.64 C163.6 47.54, 184.92 24.28, 203.81 0.94 M141.49 72.64 C157.97 55.11, 171.75 36.25, 203.81 0.94 M146.47 73 C164.74 50.07, 184.75 31.86, 209.45 0.55 M146.47 73 C169.77 45.07, 195.2 17.9, 209.45 0.55 M152.12 72.61 C170.98 50.38, 191.11 25.57, 214.44 0.91 M152.12 72.61 C167.16 54.48, 184.74 36.2, 214.44 0.91 M157.1 72.97 C171.7 55.53, 188.24 37.45, 220.08 0.51 M157.1 72.97 C171.53 57.7, 184.96 42.02, 220.08 0.51 M162.09 73.33 C182.79 52.34, 200.46 29.24, 225.07 0.87 M162.09 73.33 C176.54 57.94, 188.74 43.02, 225.07 0.87 M167.73 72.93 C187.78 52.57, 204.67 31.34, 230.71 0.48 M167.73 72.93 C192.31 45.48, 215.11 18.16, 230.71 0.48 M172.72 73.29 C192.03 53.03, 213.93 26.16, 235.7 0.84 M172.72 73.29 C187.14 54.62, 203.69 37.67, 235.7 0.84 M178.36 72.9 C196.89 49.98, 218.6 27.24, 241.34 0.45 M178.36 72.9 C191.33 57.21, 204.9 42.89, 241.34 0.45 M183.35 73.26 C207.11 47.48, 230.29 17.13, 246.33 0.81 M183.35 73.26 C195.69 56.95, 208.85 41.55, 246.33 0.81 M188.99 72.86 C203.94 55.74, 221.89 34.74, 251.97 0.41 M188.99 72.86 C203.18 55.08, 218.22 38.46, 251.97 0.41 M193.98 73.22 C219.55 44.07, 240.87 19.79, 256.96 0.77 M193.98 73.22 C208.25 55.94, 223.54 39.09, 256.96 0.77 M199.62 72.83 C217.99 48.42, 241.49 28.33, 262.6 0.38 M199.62 72.83 C214.61 56.41, 229.03 40.98, 262.6 0.38 M204.61 73.19 C223.33 53.31, 241.74 30.68, 267.59 0.74 M204.61 73.19 C229.17 46.22, 251.07 19.59, 267.59 0.74 M210.25 72.79 C224.49 54.46, 241.18 34.58, 273.23 0.34 M210.25 72.79 C227.21 52.37, 245.03 32.68, 273.23 0.34 M215.24 73.15 C229.43 57.1, 240.31 42.47, 278.22 0.7 M215.24 73.15 C237.32 48.52, 258.37 22.2, 278.22 0.7 M220.88 72.76 C240.5 49.7, 259.92 29.24, 283.86 0.31 M220.88 72.76 C245.23 46.31, 268.29 19.17, 283.86 0.31 M225.87 73.12 C244.42 48.72, 265.88 27.95, 288.85 0.67 M225.87 73.12 C251.66 44.25, 275.97 16.49, 288.85 0.67 M231.51 72.72 C253.24 45.13, 279.63 17.21, 293.84 1.03 M231.51 72.72 C244.39 57.29, 257.3 41.73, 293.84 1.03 M236.5 73.08 C256.68 52.52, 274.01 31.26, 299.48 0.63 M236.5 73.08 C252.49 52.88, 270.22 34.34, 299.48 0.63 M242.14 72.69 C264.56 48.95, 287.34 23.02, 304.47 0.99 M242.14 72.69 C265.99 45.72, 289.13 17.36, 304.47 0.99 M247.13 73.05 C268.76 49.79, 290 25.19, 310.11 0.6 M247.13 73.05 C271.93 45.31, 297.4 16.35, 310.11 0.6 M252.77 72.66 C272.81 49.72, 292.69 22.65, 315.1 0.96 M252.77 72.66 C274.82 46.14, 296.99 21.06, 315.1 0.96 M257.76 73.02 C279.06 47.65, 296.04 26.13, 320.74 0.56 M257.76 73.02 C279.13 48.78, 298.14 26.64, 320.74 0.56 M262.75 73.38 C286.03 44.74, 309.2 19.59, 325.73 0.92 M262.75 73.38 C284.29 48.03, 306.79 23.96, 325.73 0.92 M268.39 72.98 C284.12 55.13, 298.79 37.14, 331.37 0.53 M268.39 72.98 C286.16 50.17, 306.05 30.27, 331.37 0.53 M273.38 73.34 C296.56 45.22, 323.75 15.16, 336.36 0.89 M273.38 73.34 C289.13 55.59, 302.31 40.33, 336.36 0.89 M279.02 72.95 C303.53 43.87, 326.85 18.13, 342 0.49 M279.02 72.95 C293.37 55.49, 308.15 39.18, 342 0.49 M284.01 73.31 C298.42 57.71, 311.23 40.55, 346.99 0.85 M284.01 73.31 C308.02 43.63, 333.49 16.03, 346.99 0.85 M289.65 72.91 C311.51 49.12, 331.37 27.36, 352.63 0.46 M289.65 72.91 C314.28 43.1, 339.52 15.91, 352.63 0.46 M294.64 73.27 C311.15 55.94, 323.35 38.14, 357.62 0.82 M294.64 73.27 C315.12 50.08, 336.79 25.51, 357.62 0.82 M300.28 72.88 C323.32 47.78, 344.6 22, 363.26 0.43 M300.28 72.88 C320.59 50.02, 339.32 28.35, 363.26 0.43 M305.27 73.24 C321.19 53.97, 335.23 38.9, 368.25 0.79 M305.27 73.24 C320.38 55.99, 334.56 39.62, 368.25 0.79 M310.91 72.84 C326.89 57.23, 339.69 36.32, 372.58 1.9 M310.91 72.84 C323.53 58.18, 338.06 42.96, 372.58 1.9 M315.9 73.2 C339.86 47.6, 361.01 22.6, 376.91 3.02 M315.9 73.2 C338.69 46.17, 361.68 20.58, 376.91 3.02 M321.54 72.81 C338.51 50.61, 357.46 32.27, 379.93 5.64 M321.54 72.81 C336.35 54.99, 349.93 38.93, 379.93 5.64 M326.53 73.17 C341.29 57.14, 355.14 36.64, 382.29 9.02 M326.53 73.17 C347.2 48.97, 367.48 26.48, 382.29 9.02 M332.17 72.77 C348.91 51.78, 366.05 34.35, 384.66 12.4 M332.17 72.77 C345.89 56.87, 360.02 41.97, 384.66 12.4 M337.16 73.13 C350.96 56.83, 362.64 44.64, 384.39 18.8 M337.16 73.13 C350.38 58.41, 363.8 42.97, 384.39 18.8 M342.8 72.74 C358.9 55.85, 372.92 38.47, 384.13 25.19 M342.8 72.74 C359.81 54.2, 374.02 35.6, 384.13 25.19 M347.79 73.1 C354.66 65.33, 364.11 55.68, 384.53 30.84 M347.79 73.1 C358.88 60.26, 371.55 46.08, 384.53 30.84 M352.77 73.46 C358.94 66.21, 369.89 55.52, 384.27 37.23 M352.77 73.46 C360.31 65.04, 369.69 54.26, 384.27 37.23 M358.42 73.07 C364.98 65.59, 369.02 58.96, 384 43.63 M358.42 73.07 C368.68 61.66, 377.08 51.51, 384 43.63 M363.4 73.43 C367.59 70.26, 373.45 61.3, 384.4 49.27 M363.4 73.43 C367.97 69.41, 372.38 63.07, 384.4 49.27 M367.74 74.54 C374.28 66.78, 379.58 61.94, 384.14 55.67 M367.74 74.54 C374.31 67.19, 380 58.66, 384.14 55.67 M374.69 72.64 C376.19 69.99, 382.01 66.54, 385.19 60.56 M374.69 72.64 C377.37 68.95, 380.91 65.58, 385.19 60.56" stroke="#ffec99" stroke-width="0.5" fill="none"></path><path d="M18.25 0 M18.25 0 C129.54 2.72, 242.28 1.14, 365.75 0 M18.25 0 C127.66 -1.41, 238.58 -1.21, 365.75 0 M365.75 0 C378.27 0.9, 382.95 5.36, 384 18.25 M365.75 0 C380.07 0.47, 383.93 4.97, 384 18.25 M384 18.25 C384.02 33.84, 384.87 48.45, 384 54.75 M384 18.25 C384.01 28.7, 384.22 39.53, 384 54.75 M384 54.75 C382.32 67.61, 378.7 73.98, 365.75 73 M384 54.75 C385.93 68.19, 378.42 74.36, 365.75 73 M365.75 73 C288.24 70.59, 213.1 72.01, 18.25 73 M365.75 73 C265.08 74.84, 163.23 75.38, 18.25 73 M18.25 73 C7.8 72.9, 1.58 68.54, 0 54.75 M18.25 73 C7.06 72.31, -0.46 65.42, 0 54.75 M0 54.75 C0.31 45.73, -1.55 34.03, 0 18.25 M0 54.75 C0.72 40.09, -0.05 27.49, 0 18.25 M0 18.25 C1.55 7.28, 6.06 -1.74, 18.25 0 M0 18.25 C1.91 4.6, 5.29 1.6, 18.25 0" stroke="#000000" stroke-width="1" fill="none"></path></g><g transform="translate(297.58984375 586.578125) rotate(0 70.3125 28.80000000000001)"><text x="0" y="0" font-family="Cascadia, Segoe UI Emoji" font-size="16px" fill="#000000" text-anchor="start" style="white-space: pre;" direction="ltr" dominant-baseline="text-before-edge">directories: []</text><text x="0" y="19.2" font-family="Cascadia, Segoe UI Emoji" font-size="16px" fill="#000000" text-anchor="start" style="white-space: pre;" direction="ltr" dominant-baseline="text-before-edge">files: []</text><text x="0" y="38.4" font-family="Cascadia, Segoe UI Emoji" font-size="16px" fill="#000000" text-anchor="start" style="white-space: pre;" direction="ltr" dominant-baseline="text-before-edge">symlinks: []</text></g><g stroke-linecap="round" transform="translate(297.01171875 700.19140625) rotate(0 192 63)"><path d="M4.68 12.02 C4.68 12.02, 4.68 12.02, 4.68 12.02 M4.68 12.02 C4.68 12.02, 4.68 12.02, 4.68 12.02 M1.14 22.19 C5.68 16.12, 10.34 11.35, 18.19 2.57 M1.14 22.19 C5.63 15.12, 11.63 10.54, 18.19 2.57 M2.84 26.32 C9.4 19.34, 14.38 14.47, 24.49 1.42 M2.84 26.32 C7.02 21.88, 12.43 16.24, 24.49 1.42 M3.24 31.97 C12.37 22.32, 23.31 9.97, 30.14 1.02 M3.24 31.97 C8.75 26.69, 14.07 19.43, 30.14 1.02 M2.98 38.36 C11.61 29.09, 22.34 16.73, 34.47 2.14 M2.98 38.36 C14.61 26.7, 24.62 13.57, 34.47 2.14 M2.72 44.76 C8.44 35.48, 20.15 28.58, 39.46 2.5 M2.72 44.76 C9.81 35.38, 16.68 27.81, 39.46 2.5 M3.11 50.4 C17.54 33.89, 29.94 20.31, 45.1 2.1 M3.11 50.4 C20.74 31.63, 36.06 13.37, 45.1 2.1 M2.85 56.8 C18.58 35.97, 39.38 14.61, 50.09 2.46 M2.85 56.8 C15.02 42.55, 25.62 29.03, 50.09 2.46 M3.24 62.45 C13.28 49.17, 26.13 38.7, 55.73 2.07 M3.24 62.45 C14.41 50.21, 23.72 38.66, 55.73 2.07 M2.98 68.84 C13.36 56.63, 24.49 40.18, 60.72 2.43 M2.98 68.84 C25.38 43.36, 46.78 18.82, 60.72 2.43 M2.72 75.24 C27.68 45.78, 49.87 21.46, 66.36 2.03 M2.72 75.24 C27.36 48.58, 50.99 21.41, 66.36 2.03 M3.12 80.88 C26.98 53.98, 51.79 26.74, 71.35 2.39 M3.12 80.88 C24.82 57.11, 46.21 30.7, 71.35 2.39 M2.85 87.28 C25.83 58.82, 49.6 32.81, 76.33 2.75 M2.85 87.28 C18.86 69.84, 32.85 53.27, 76.33 2.75 M3.25 92.92 C31.02 64.11, 55.21 32.05, 81.98 2.36 M3.25 92.92 C29.09 64.51, 54.01 35.08, 81.98 2.36 M0.36 102.34 C18.06 82.88, 34.35 63.19, 86.96 2.72 M0.36 102.34 C22.5 76.81, 45.99 50.02, 86.96 2.72 M2.07 106.47 C35.94 64.04, 71.16 24.59, 92.61 2.33 M2.07 106.47 C29.3 74.98, 57.21 42, 92.61 2.33 M3.78 110.61 C32.64 72.16, 65.08 38.52, 97.59 2.69 M3.78 110.61 C27.71 83.59, 50.59 56.73, 97.59 2.69 M5.48 114.74 C31.81 84.38, 61.24 51.3, 103.24 2.29 M5.48 114.74 C38.37 76.78, 69.65 40.61, 103.24 2.29 M7.85 118.12 C37.24 84.78, 67.86 51.75, 108.22 2.65 M7.85 118.12 C40.51 79.72, 74.23 40.65, 108.22 2.65 M10.86 120.75 C33.15 93.28, 59.27 65.67, 113.87 2.26 M10.86 120.75 C41.44 83.49, 74.67 47.06, 113.87 2.26 M14.54 122.62 C54.9 77.33, 93.45 31.72, 118.85 2.62 M14.54 122.62 C36.96 96.13, 58.59 69.9, 118.85 2.62 M18.21 124.48 C60.03 78.24, 98.36 27.73, 124.5 2.22 M18.21 124.48 C47.99 89.82, 78.58 52.73, 124.5 2.22 M23.2 124.84 C60.93 81.34, 96.9 37.41, 129.48 2.58 M23.2 124.84 C51.15 90.76, 80.7 57.55, 129.48 2.58 M27.53 125.96 C67.64 79.48, 108.95 32.16, 135.13 2.19 M27.53 125.96 C50.35 100, 70.45 76.16, 135.13 2.19 M32.52 126.32 C67.96 82.8, 105.29 42.95, 140.11 2.55 M32.52 126.32 C55.09 102.84, 75.65 76.61, 140.11 2.55 M37.51 126.68 C76.58 83.49, 111.39 39.46, 145.76 2.15 M37.51 126.68 C68.68 90.35, 99.78 54.4, 145.76 2.15 M43.15 126.29 C79.05 86.81, 113.32 46.01, 150.74 2.51 M43.15 126.29 C83.16 78.74, 122.47 32.63, 150.74 2.51 M48.14 126.65 C84.95 86.46, 121.01 43.96, 156.39 2.12 M48.14 126.65 C77.47 92.07, 106.15 57.86, 156.39 2.12 M53.12 127.01 C94.06 83.46, 132.13 35.83, 161.37 2.48 M53.12 127.01 C83.35 90.25, 115.88 54.9, 161.37 2.48 M58.77 126.61 C88.9 91.94, 120.62 55.5, 167.02 2.08 M58.77 126.61 C80.71 101.71, 103.08 74.94, 167.02 2.08 M63.75 126.97 C94.83 94.26, 121.35 59.65, 172 2.44 M63.75 126.97 C99.19 87.16, 134.08 46.33, 172 2.44 M69.4 126.58 C96.06 98.29, 123.08 66.58, 177.65 2.05 M69.4 126.58 C94.05 98.86, 118.43 72.82, 177.65 2.05 M74.38 126.94 C110.22 87.09, 146.32 44.12, 182.63 2.41 M74.38 126.94 C112.7 80.36, 152.52 34.24, 182.63 2.41 M80.03 126.54 C112.63 85.84, 146.64 47.21, 188.28 2.01 M80.03 126.54 C118.52 83.47, 154.62 39.47, 188.28 2.01 M85.01 126.9 C123.66 84.49, 160.64 41.03, 193.26 2.37 M85.01 126.9 C107.24 101.3, 128.84 75.24, 193.26 2.37 M90.66 126.51 C128.32 79.98, 168.35 34.11, 198.25 2.73 M90.66 126.51 C125.23 87.51, 159.47 48.47, 198.25 2.73 M95.64 126.87 C136.32 80.89, 176.13 32.73, 203.89 2.34 M95.64 126.87 C130.67 85.7, 167.03 45.03, 203.89 2.34 M101.29 126.47 C138.72 85.68, 174.7 42.24, 208.88 2.7 M101.29 126.47 C141.27 81.26, 181.48 32.8, 208.88 2.7 M106.27 126.83 C133.13 96.99, 159.87 69.21, 214.52 2.31 M106.27 126.83 C139.22 87.92, 173.99 50.04, 214.52 2.31 M111.92 126.44 C139.17 92.95, 170.03 64.03, 219.51 2.67 M111.92 126.44 C140.35 94.34, 169.24 63.52, 219.51 2.67 M116.9 126.8 C139.41 102.01, 161.49 74.65, 225.15 2.27 M116.9 126.8 C143.96 97.47, 169.6 65.58, 225.15 2.27 M122.55 126.4 C151.81 92.7, 184.46 60.16, 230.14 2.63 M122.55 126.4 C144.55 101.98, 167.71 77.15, 230.14 2.63 M127.53 126.76 C155.24 93.9, 184.87 59.39, 235.78 2.24 M127.53 126.76 C162.55 85.69, 197.14 44.32, 235.78 2.24 M133.18 126.37 C156.24 97.59, 181.25 74.22, 240.77 2.6 M133.18 126.37 C169.91 83.87, 205.04 43.06, 240.77 2.6 M138.16 126.73 C171.62 83.67, 210.01 43.26, 246.41 2.2 M138.16 126.73 C162.75 98.55, 185.88 71.86, 246.41 2.2 M143.81 126.33 C167.53 96.38, 195.44 68.77, 251.4 2.56 M143.81 126.33 C175.38 87.65, 208.52 52.45, 251.4 2.56 M148.79 126.69 C186.15 81.29, 226.32 36.57, 257.04 2.17 M148.79 126.69 C185.38 86.13, 221.92 44.72, 257.04 2.17 M154.44 126.3 C190.78 83.15, 229.34 36.03, 262.03 2.53 M154.44 126.3 C178.51 97.01, 203.83 70.69, 262.03 2.53 M159.42 126.66 C189.83 93.77, 217.8 63.16, 267.67 2.13 M159.42 126.66 C196.22 84.11, 234.53 42.17, 267.67 2.13 M165.07 126.27 C199.58 88.17, 233.46 45.58, 272.66 2.49 M165.07 126.27 C204.81 83.18, 243.36 38.31, 272.66 2.49 M170.05 126.63 C191.4 102.17, 214.65 75.55, 278.3 2.1 M170.05 126.63 C194.79 98.87, 219.21 68.85, 278.3 2.1 M175.04 126.99 C218.62 76.89, 259.45 31.99, 283.29 2.46 M175.04 126.99 C200.78 100.7, 225.33 71.6, 283.29 2.46 M180.68 126.59 C214.02 88.6, 246.67 51.74, 288.93 2.06 M180.68 126.59 C212.29 91.19, 241.62 56.43, 288.93 2.06 M185.67 126.95 C215.71 95.07, 243.49 60.99, 293.92 2.42 M185.67 126.95 C216.01 94.84, 243.45 62.69, 293.92 2.42 M191.31 126.56 C229.63 85.76, 263.97 41.71, 299.56 2.03 M191.31 126.56 C222.59 88.19, 255.96 51.19, 299.56 2.03 M196.3 126.92 C217.19 100.03, 243 74.87, 304.55 2.39 M196.3 126.92 C218.88 99.48, 243.28 72.58, 304.55 2.39 M201.94 126.52 C245.64 78.21, 284.33 30.24, 309.54 2.75 M201.94 126.52 C240.53 84.15, 277.64 41.48, 309.54 2.75 M206.93 126.88 C248.75 80.42, 287.71 35.97, 315.18 2.36 M206.93 126.88 C240.59 87.82, 273.05 49.59, 315.18 2.36 M212.57 126.49 C242.06 93.98, 270.55 61.9, 320.17 2.72 M212.57 126.49 C238.53 99.42, 261.94 72.17, 320.17 2.72 M217.56 126.85 C255.21 80.1, 296.4 36.1, 325.81 2.32 M217.56 126.85 C248.46 91.27, 280.97 56.5, 325.81 2.32 M223.2 126.45 C245.32 96.89, 272.92 68.02, 330.8 2.68 M223.2 126.45 C246.93 99.22, 269.26 73.84, 330.8 2.68 M228.19 126.81 C266.27 81.56, 302.8 39.44, 336.44 2.29 M228.19 126.81 C268.68 80.87, 310.31 31.49, 336.44 2.29 M233.83 126.42 C261.99 92.9, 293.86 58.89, 341.43 2.65 M233.83 126.42 C265.72 90.09, 297.62 53.24, 341.43 2.65 M238.82 126.78 C276.56 81.01, 314.76 40.31, 347.07 2.25 M238.82 126.78 C275.07 83.85, 309.78 43.16, 347.07 2.25 M244.47 126.38 C281.08 86.31, 311.83 47.08, 353.37 1.1 M244.47 126.38 C284.42 79.98, 324.2 34.41, 353.37 1.1 M249.45 126.74 C283.83 89.61, 316.66 48.25, 358.36 1.46 M249.45 126.74 C288.06 81.49, 329.09 35.62, 358.36 1.46 M255.1 126.35 C286.95 88.5, 321.78 49.74, 362.69 2.58 M255.1 126.35 C278.54 101.51, 299.57 76.6, 362.69 2.58 M260.08 126.71 C289.9 92.16, 318.76 59.09, 367.68 2.94 M260.08 126.71 C286.6 97.68, 309.24 69.16, 367.68 2.94 M265.73 126.32 C304.67 81.34, 343.89 36.13, 371.35 4.81 M265.73 126.32 C296.05 89.95, 328.32 54.46, 371.35 4.81 M270.71 126.68 C312.11 79.85, 350.1 38.08, 375.03 6.68 M270.71 126.68 C308.29 85.27, 344.32 43.1, 375.03 6.68 M276.36 126.28 C302.37 95.05, 332.55 61.6, 377.39 10.06 M276.36 126.28 C300.17 99.46, 322.39 72.19, 377.39 10.06 M281.34 126.64 C304.76 96.82, 332.3 67.75, 380.41 12.68 M281.34 126.64 C307.49 95.18, 332.91 65.5, 380.41 12.68 M286.33 127 C314.42 93.01, 345.57 57.56, 381.46 17.57 M286.33 127 C313.51 94.85, 341.77 62.68, 381.46 17.57 M291.97 126.61 C313.48 100.45, 339.17 75.97, 383.16 21.7 M291.97 126.61 C311.58 103.09, 333.11 79.56, 383.16 21.7 M296.96 126.97 C320.59 100.34, 342.62 72.36, 384.87 25.84 M296.96 126.97 C321.66 99.71, 344.27 72.56, 384.87 25.84 M302.6 126.57 C334.11 86.35, 368.78 51.97, 385.27 31.48 M302.6 126.57 C330.75 94.29, 357.85 62.13, 385.27 31.48 M307.59 126.93 C326.81 105.47, 343.03 83.78, 385 37.88 M307.59 126.93 C327.54 105.51, 344.6 84.21, 385 37.88 M313.23 126.54 C332.05 106.16, 349.05 86.64, 385.4 43.52 M313.23 126.54 C332.89 103.96, 352.85 83.32, 385.4 43.52 M318.22 126.9 C331.98 110.58, 346.57 93.14, 385.14 49.92 M318.22 126.9 C331.03 111.1, 344.19 94.95, 385.14 49.92 M323.86 126.5 C335.72 108.89, 350.56 93.22, 385.53 55.56 M323.86 126.5 C345.11 101.47, 364.04 79.57, 385.53 55.56 M328.85 126.86 C346.1 108.02, 361.21 90.1, 385.27 61.96 M328.85 126.86 C342.2 112.06, 355.94 96.74, 385.27 61.96 M334.49 126.47 C350.84 109.97, 364.71 94.6, 385.67 67.6 M334.49 126.47 C353.49 104.81, 372.17 82.14, 385.67 67.6 M339.48 126.83 C348.96 114.71, 363.17 101.01, 385.4 74 M339.48 126.83 C354.75 110.09, 368.15 93.09, 385.4 74 M345.12 126.43 C354.84 117.22, 365.07 103.77, 385.8 79.64 M345.12 126.43 C358.46 110.23, 371.31 95.91, 385.8 79.64 M350.11 126.79 C364.3 111.08, 375.22 97.18, 385.54 86.04 M350.11 126.79 C363.14 112.28, 374.94 98.31, 385.54 86.04 M354.44 127.91 C362.81 117.31, 370.87 110.18, 385.28 92.44 M354.44 127.91 C362.9 118.85, 369.83 111.91, 385.28 92.44 M360.74 126.76 C367.63 119.85, 374.61 113.88, 386.98 96.57 M360.74 126.76 C369 116.72, 377.31 108.85, 386.98 96.57 M367.7 124.86 C371.04 118.25, 376.15 112.61, 382.13 108.25 M367.7 124.86 C371.11 120.48, 374.22 117.39, 382.13 108.25" stroke="#ffec99" stroke-width="0.5" fill="none"></path><path d="M31.5 0 M31.5 0 C144.73 2.16, 257.89 1.55, 352.5 0 M31.5 0 C123.21 -0.03, 215.81 -0.04, 352.5 0 M352.5 0 C373.48 -1.54, 384.54 11.54, 384 31.5 M352.5 0 C371.52 1.89, 382.06 11.18, 384 31.5 M384 31.5 C384.2 57.65, 382.83 81.45, 384 94.5 M384 31.5 C384.94 50.55, 383.94 67.7, 384 94.5 M384 94.5 C385.07 116.86, 374.35 127.03, 352.5 126 M384 94.5 C385.17 117.04, 373.57 125.11, 352.5 126 M352.5 126 C247.11 128.47, 140.42 127.09, 31.5 126 M352.5 126 C271.97 126.76, 193.29 127.03, 31.5 126 M31.5 126 C11.34 124.76, -1.26 114.07, 0 94.5 M31.5 126 C9.77 126.57, -1.64 113.31, 0 94.5 M0 94.5 C0.36 74.76, 1.16 53.5, 0 31.5 M0 94.5 C-0.19 81.51, -0.09 68.38, 0 31.5 M0 31.5 C-0.91 8.69, 10.9 0.79, 31.5 0 M0 31.5 C2.16 12.64, 11.39 -0.47, 31.5 0" stroke="#000000" stroke-width="1" fill="none"></path></g><g transform="translate(302.01171875 705.19140625) rotate(0 145.3125 57.60000000000002)"><text x="0" y="0" font-family="Cascadia, Segoe UI Emoji" font-size="16px" fill="#000000" text-anchor="start" style="white-space: pre;" direction="ltr" dominant-baseline="text-before-edge">directories:</text><text x="0" y="19.2" font-family="Cascadia, Segoe UI Emoji" font-size="16px" fill="#000000" text-anchor="start" style="white-space: pre;" direction="ltr" dominant-baseline="text-before-edge"> - name: a</text><text x="0" y="38.4" font-family="Cascadia, Segoe UI Emoji" font-size="16px" fill="#000000" text-anchor="start" style="white-space: pre;" direction="ltr" dominant-baseline="text-before-edge">   digest: &lt;directory-a-digest&gt;</text><text x="0" y="57.599999999999994" font-family="Cascadia, Segoe UI Emoji" font-size="16px" fill="#000000" text-anchor="start" style="white-space: pre;" direction="ltr" dominant-baseline="text-before-edge">   size: 0</text><text x="0" y="76.8" font-family="Cascadia, Segoe UI Emoji" font-size="16px" fill="#000000" text-anchor="start" style="white-space: pre;" direction="ltr" dominant-baseline="text-before-edge">files: []</text><text x="0" y="96" font-family="Cascadia, Segoe UI Emoji" font-size="16px" fill="#000000" text-anchor="start" style="white-space: pre;" direction="ltr" dominant-baseline="text-before-edge">symlinks: []</text></g><g transform="translate(303.75390625 45.62890625) rotate(0 89.0625 9.599999999999994)"><text x="0" y="0" font-family="Cascadia, Segoe UI Emoji" font-size="16px" fill="#f08c00" text-anchor="start" style="white-space: pre;" direction="ltr" dominant-baseline="text-before-edge">DIRECTORY_WITH_KEEP</text></g><g transform="translate(308.25390625 240.4765625) rotate(0 98.4375 9.599999999999994)"><text x="0" y="0" font-family="Cascadia, Segoe UI Emoji" font-size="16px" fill="#f08c00" text-anchor="start" style="white-space: pre;" direction="ltr" dominant-baseline="text-before-edge">DIRECTORY_COMPLICATED</text></g><g transform="translate(307.28125 554.6148437500001) rotate(0 51.5625 9.600000000000023)"><text x="0" y="0" font-family="Cascadia, Segoe UI Emoji" font-size="16px" fill="#f08c00" text-anchor="start" style="white-space: pre;" direction="ltr" dominant-baseline="text-before-edge">DIRECTORY_A</text></g><g transform="translate(310.6875 674.4585937500001) rotate(0 51.5625 9.600000000000023)"><text x="0" y="0" font-family="Cascadia, Segoe UI Emoji" font-size="16px" fill="#f08c00" text-anchor="start" style="white-space: pre;" direction="ltr" dominant-baseline="text-before-edge">DIRECTORY_B</text></g><g transform="translate(18.95703125 42.53671874999998) rotate(0 28.125 9.599999999999994)"><text x="0" y="0" font-family="Cascadia, Segoe UI Emoji" font-size="16px" fill="#1971c2" text-anchor="start" style="white-space: pre;" direction="ltr" dominant-baseline="text-before-edge">BLOB_A</text></g><g transform="translate(22.55078125 130.24374999999998) rotate(0 28.125 9.599999999999994)"><text x="0" y="0" font-family="Cascadia, Segoe UI Emoji" font-size="16px" fill="#1971c2" text-anchor="start" style="white-space: pre;" direction="ltr" dominant-baseline="text-before-edge">BLOB_B</text></g><g transform="translate(13.5546875 210.27109374999998) rotate(0 46.875 9.599999999999994)"><text x="0" y="0" font-family="Cascadia, Segoe UI Emoji" font-size="16px" fill="#1971c2" text-anchor="start" style="white-space: pre;" direction="ltr" dominant-baseline="text-before-edge">BLOB_EMPTY</text></g><g stroke-linecap="round"><g transform="translate(388.15234375 147.38671875) rotate(0 -178.16880695513453 57.143675736445005)"><path d="M-0.52 1.13 C-60.08 19.9, -297.46 94.83, -357.2 113.61 M1.4 0.68 C-58.25 18.98, -298.08 93.09, -357.74 111.59" stroke="#1e1e1e" stroke-width="1" fill="none"></path></g><g transform="translate(388.15234375 147.38671875) rotate(0 -178.16880695513453 57.143675736445005)"><path d="M-331.96 94.73 C-340.78 97.36, -347.89 102.93, -357.37 112.7 M-333.95 93.43 C-339.75 97.47, -345.42 102.99, -358.69 111" stroke="#1e1e1e" stroke-width="1" fill="none"></path></g><g transform="translate(388.15234375 147.38671875) rotate(0 -178.16880695513453 57.143675736445005)"><path d="M-325.89 114.33 C-336.76 110.86, -345.74 110.35, -357.37 112.7 M-327.89 113.04 C-335.08 112.25, -342.26 112.89, -358.69 111" stroke="#1e1e1e" stroke-width="1" fill="none"></path></g></g><mask></mask><g stroke-linecap="round"><g transform="translate(399.61021320513464 319.000855513555) rotate(0 132.18131301403048 -119.00356223583219)"><path d="M-0.42 1.04 C43.76 -38.95, 220.7 -199.19, 264.79 -239.05 M1.55 0.54 C45.63 -39.42, 220.36 -198.5, 263.94 -238.07" stroke="#1e1e1e" stroke-width="1" fill="none"></path></g><g transform="translate(399.61021320513464 319.000855513555) rotate(0 132.18131301403048 -119.00356223583219)"><path d="M251.72 -211.19 C251.81 -219.53, 257.18 -225.36, 265.07 -236.65 M250.73 -212.1 C253.06 -218.02, 257.3 -223.31, 264.08 -238.4" stroke="#1e1e1e" stroke-width="1" fill="none"></path></g><g transform="translate(399.61021320513464 319.000855513555) rotate(0 132.18131301403048 -119.00356223583219)"><path d="M237.91 -226.37 C241.88 -230.52, 251.02 -232.22, 265.07 -236.65 M236.92 -227.29 C242.47 -229.5, 250.03 -231.14, 264.08 -238.4" stroke="#1e1e1e" stroke-width="1" fill="none"></path></g></g><mask></mask><g stroke-linecap="round"><g transform="translate(396.39146320513464 414.62194926355494) rotate(0 -181.26559592220468 -76.52005761642474)"><path d="M0.21 0.21 C-60.17 -24.98, -301.37 -126.03, -361.5 -151.72 M-1.14 -0.73 C-61.8 -26.18, -302.73 -127.84, -362.74 -153.25" stroke="#1e1e1e" stroke-width="1" fill="none"></path></g><g transform="translate(396.39146320513464 414.62194926355494) rotate(0 -181.26559592220468 -76.52005761642474)"><path d="M-332.43 -152.64 C-341.83 -151.66, -356.48 -151.02, -362.88 -151.77 M-332.23 -151.12 C-344.25 -151.99, -356 -152.45, -362.93 -152.59" stroke="#1e1e1e" stroke-width="1" fill="none"></path></g><g transform="translate(396.39146320513464 414.62194926355494) rotate(0 -181.26559592220468 -76.52005761642474)"><path d="M-340.42 -133.74 C-346.81 -139.68, -358.54 -145.95, -362.88 -151.77 M-340.22 -132.22 C-349.22 -140.26, -357.91 -147.96, -362.93 -152.59" stroke="#1e1e1e" stroke-width="1" fill="none"></path></g></g><mask></mask><g stroke-linecap="round"><g transform="translate(407.44140625 751.55078125) rotate(0 45.37286624398547 -48.585232615470886)"><path d="M-0.84 0.01 C13.92 -16, 74.3 -80.87, 89.45 -97.18 M0.92 -1.04 C15.95 -16.73, 76.9 -79.62, 91.58 -95.58" stroke="#1e1e1e" stroke-width="1" fill="none"></path></g><g transform="translate(407.44140625 751.55078125) rotate(0 45.37286624398547 -48.585232615470886)"><path d="M79.65 -69.91 C84.59 -79.16, 87.99 -87.88, 90.6 -97.23 M78.91 -67.92 C83.62 -76.08, 87.25 -85.83, 90.62 -96.45" stroke="#1e1e1e" stroke-width="1" fill="none"></path></g><g transform="translate(407.44140625 751.55078125) rotate(0 45.37286624398547 -48.585232615470886)"><path d="M64.75 -84.03 C75.18 -87.85, 84.2 -91.25, 90.6 -97.23 M64.01 -82.04 C73.25 -85.89, 81.47 -91.29, 90.62 -96.45" stroke="#1e1e1e" stroke-width="1" fill="none"></path></g></g><mask></mask></svg>